<svg width="43" height="42" viewBox="0 0 43 42" fill="none" xmlns="http://www.w3.org/2000/svg">
<path d="M32.1492 6.78085L28.7189 12.764L30.9526 13.0831L32.1492 6.78085Z" fill="url(#paint0_linear_109_82)"/>
<path d="M14.3595 12.764L10.9291 6.78085L12.1258 13.0831L14.3595 12.764Z" fill="url(#paint1_linear_109_82)"/>
<path d="M7.09995 15.0774L7.8977 15.5561C8.61567 16.0347 9.41342 16.1943 10.2909 16.1145L17.0718 15.237C18.1886 15.0774 19.2257 14.4392 19.7841 13.4022L21.3796 10.5303L22.9751 13.4022C23.5335 14.4392 24.4908 15.0774 25.6875 15.237L32.4683 16.1145C33.2661 16.1943 34.1436 16.0347 34.8616 15.5561L35.6593 15.0774L35.9784 16.5931L42.6795 5.26513C42.6795 5.26513 38.9301 7.09995 36.9357 7.73815L37.6537 8.45612C38.4514 9.25387 38.2919 11.0089 37.4143 12.2055C36.0582 13.8808 34.3829 14.8381 32.7874 14.5988L28.0009 13.9606C26.0863 13.7213 24.092 9.33364 23.4538 7.41905C22.5762 5.58423 21.2201 0 21.2201 0C21.2201 0 19.8639 5.58423 19.2257 7.41905C18.5875 9.33364 16.5931 13.7213 14.6785 13.9606L9.89207 14.5988C8.29657 14.7583 6.54153 13.8808 5.26513 12.2055C4.30783 11.0089 4.22806 9.33364 5.02581 8.45612L5.74378 7.73815C3.74941 7.09995 0 5.26513 0 5.26513L6.70108 16.5931L7.09995 15.0774Z" fill="url(#paint2_linear_109_82)"/>
<path d="M14.7921 29.4449C14.7921 26.3336 14.7921 23.2224 14.7921 20.1112C14.7921 18.5157 13.9146 17.6382 12.2393 17.4786C12.1595 17.4786 12.1595 17.4786 12.0798 17.3989C12 17.3191 12 17.3191 12 17.2393C12 17.1596 12 17.1595 12.0798 17.0798C12.1595 17 12.1595 17 12.2393 17H19.419C19.8179 17 20.137 17 20.2168 17.0798C20.3763 17.1595 20.3763 17.2393 20.2966 17.3191C20.2168 17.3989 20.137 17.4786 19.9775 17.4786C19.8977 17.4786 19.8179 17.4786 19.7381 17.4786C19.6584 17.4786 19.4988 17.4786 19.419 17.5584C18.1427 17.9573 17.5045 18.755 17.5045 20.1112C17.5045 21.7067 17.5045 23.3022 17.5045 24.8179C17.5045 26.3336 17.5045 27.8494 17.5045 29.2853H17.5842L19.0999 27.1314L24.046 20.1112C24.5246 19.473 24.6044 18.9146 24.2853 18.4359C24.046 17.9573 23.6471 17.718 23.0887 17.5584C22.9291 17.4786 22.7696 17.4786 22.61 17.4786C22.5303 17.4786 22.5303 17.3989 22.5303 17.3191C22.5303 17.2393 22.61 17.1595 22.7696 17.0798C22.9291 17 23.1685 17 23.6471 17H31.3055C31.3853 17 31.3853 17 31.3853 17.0798C31.3853 17.1595 31.3853 17.1596 31.3055 17.2393C31.2257 17.3191 31.2257 17.3191 31.1459 17.3989C31.0662 17.4786 30.9864 17.4786 30.9066 17.4786C29.3909 17.4786 27.7954 18.3562 26.1999 20.1112L20.2168 28.5673L22.8494 31.6785L27.5561 37.183C27.7156 37.3426 27.8752 37.5021 28.1145 37.7414C28.7527 38.5392 29.5504 39.1774 30.5077 39.7358C31.465 40.2942 32.901 40.6133 34.8156 40.5335C35.0549 40.5335 35.2942 40.5335 35.374 40.6133C35.4538 40.6931 35.374 40.7729 35.1347 40.8526C34.8953 40.9324 34.3369 41.0122 33.6189 41.092C30.428 41.8897 27.7156 41.1717 25.4819 38.938L18.5415 30.9606L17.5045 29.6842H17.664C17.664 31.0404 17.664 32.4763 17.664 33.7527C17.664 35.0291 17.664 36.465 17.664 37.901C17.664 38.5392 17.9033 39.0976 18.382 39.5762C18.8606 40.0549 19.3393 40.374 19.8977 40.5335C20.4561 40.6931 20.7752 40.8526 21.0145 40.8526C21.0943 40.8526 21.0943 40.8526 21.0943 40.9324C21.0943 41.0122 21.0145 41.0122 20.9348 41.092C20.855 41.1717 20.7752 41.1717 20.6157 41.2515C20.4561 41.3313 20.3763 41.3313 20.2966 41.3313H16.2281H16.3078H12.2393C12.1595 41.3313 12.0798 41.3313 12.0798 41.2515C12.0798 41.1717 12.0798 41.092 12.0798 41.0122C12.0798 40.9324 12.1595 40.9324 12.3191 40.9324C13.1168 40.9324 13.755 40.7729 14.2337 40.5335C14.7123 40.2144 14.9517 39.5762 14.9517 38.6189C14.8719 35.5077 14.8719 32.5561 14.7921 29.4449Z" fill="url(#paint3_linear_109_82)"/>
<path d="M35.3739 36.3055C35.2144 36.3853 34.8155 36.3853 34.3369 36.465C32.1829 37.0235 30.4279 36.5448 28.9122 35.0291L24.2852 29.6842L23.3279 28.6471L27.8751 22.4247C28.1942 21.946 29.0717 20.3505 29.4706 20.3505H32.8211C32.8211 20.3505 32.9009 20.3505 32.9009 20.4303V20.5101C32.9009 20.5899 32.8211 20.5899 32.7414 20.5899C32.6616 20.5899 32.6616 20.6696 32.5818 20.6696C31.5447 20.6696 30.5077 21.2281 29.4706 22.4247L25.4819 28.0887L27.2369 30.1628L30.3481 33.8325C30.5077 33.992 30.5874 34.0718 30.6672 34.1516C31.0661 34.6302 31.6245 35.1089 32.2627 35.5077C32.9009 35.9066 33.8582 36.0662 35.1346 36.0662C35.2942 36.0662 35.4537 36.0662 35.5335 36.1459C35.6133 36.1459 35.5335 36.2257 35.3739 36.3055Z" fill="url(#paint4_linear_109_82)"/>
<defs>
<linearGradient id="paint0_linear_109_82" x1="34.2165" y1="7.94875" x2="24.1529" y2="15.5291" gradientUnits="userSpaceOnUse">
<stop stop-color="#91683A"/>
<stop offset="0.036272" stop-color="#946B3C"/>
<stop offset="0.0747148" stop-color="#9C7544"/>
<stop offset="0.1142" stop-color="#AB8652"/>
<stop offset="0.1543" stop-color="#C1A268"/>
<stop offset="0.1947" stop-color="#E1CB87"/>
<stop offset="0.213" stop-color="#F7E59C"/>
<stop offset="0.2495" stop-color="#EAD48B"/>
<stop offset="0.3615" stop-color="#CBAA61"/>
<stop offset="0.4476" stop-color="#BB9349"/>
<stop offset="0.497" stop-color="#B58B42"/>
<stop offset="0.6886" stop-color="#E0C06C"/>
<stop offset="0.7134" stop-color="#C8A55D"/>
<stop offset="0.7713" stop-color="#A07943"/>
<stop offset="0.8007" stop-color="#936A3B"/>
</linearGradient>
<linearGradient id="paint1_linear_109_82" x1="13.3364" y1="9.25523" x2="8.79508" y2="12.676" gradientUnits="userSpaceOnUse">
<stop stop-color="#91683A"/>
<stop offset="0.036272" stop-color="#946B3C"/>
<stop offset="0.0747148" stop-color="#9C7544"/>
<stop offset="0.1142" stop-color="#AB8652"/>
<stop offset="0.1543" stop-color="#C1A268"/>
<stop offset="0.1947" stop-color="#E1CB87"/>
<stop offset="0.213" stop-color="#F7E59C"/>
<stop offset="0.2495" stop-color="#EAD48B"/>
<stop offset="0.3615" stop-color="#CBAA61"/>
<stop offset="0.4476" stop-color="#BB9349"/>
<stop offset="0.497" stop-color="#B58B42"/>
<stop offset="0.6886" stop-color="#E0C06C"/>
<stop offset="0.7134" stop-color="#C8A55D"/>
<stop offset="0.7713" stop-color="#A07943"/>
<stop offset="0.8007" stop-color="#936A3B"/>
</linearGradient>
<linearGradient id="paint2_linear_109_82" x1="40.3978" y1="-6.0833" x2="-15.6105" y2="36.1048" gradientUnits="userSpaceOnUse">
<stop stop-color="#91683A"/>
<stop offset="0.036272" stop-color="#946B3C"/>
<stop offset="0.0747148" stop-color="#9C7544"/>
<stop offset="0.1142" stop-color="#AB8652"/>
<stop offset="0.1543" stop-color="#C1A268"/>
<stop offset="0.1947" stop-color="#E1CB87"/>
<stop offset="0.213" stop-color="#F7E59C"/>
<stop offset="0.2495" stop-color="#EAD48B"/>
<stop offset="0.3615" stop-color="#CBAA61"/>
<stop offset="0.4476" stop-color="#BB9349"/>
<stop offset="0.497" stop-color="#B58B42"/>
<stop offset="0.6886" stop-color="#E0C06C"/>
<stop offset="0.7134" stop-color="#C8A55D"/>
<stop offset="0.7713" stop-color="#A07943"/>
<stop offset="0.8007" stop-color="#936A3B"/>
</linearGradient>
<linearGradient id="paint3_linear_109_82" x1="5" y1="8.5" x2="34.5" y2="42.5" gradientUnits="userSpaceOnUse">
<stop stop-color="#936A3B"/>
<stop offset="0.166667" stop-color="#A07943"/>
<stop offset="0.359375" stop-color="#AB8652"/>
<stop offset="0.578125" stop-color="#E0C06C"/>
<stop offset="0.75" stop-color="#F8EAA1"/>
<stop offset="1" stop-color="#C1A268"/>
</linearGradient>
<linearGradient id="paint4_linear_109_82" x1="29.4464" y1="20.3505" x2="29.4464" y2="36.6906" gradientUnits="userSpaceOnUse">
<stop stop-color="#936A3B"/>
<stop offset="0.166667" stop-color="#A07943"/>
<stop offset="0.359375" stop-color="#AB8652"/>
<stop offset="0.578125" stop-color="#E0C06C"/>
<stop offset="0.75" stop-color="#F8EAA1"/>
<stop offset="1" stop-color="#C1A268"/>
</linearGradient>
</defs>
</svg>
