<svg width="53" height="80" viewBox="0 0 53 80" fill="none" xmlns="http://www.w3.org/2000/svg">
<path d="M26.2769 56.6678C24.5114 56.6678 23.1243 58.0549 23.1243 59.8204C23.1243 60.1987 23.3765 60.4509 23.7548 60.4509C24.1331 60.4509 24.3853 60.1987 24.3853 59.8204C24.3853 58.8115 25.268 57.9288 26.2769 57.9288C26.6552 57.9288 26.9074 57.6766 26.9074 57.2983C26.9074 56.92 26.5291 56.6678 26.2769 56.6678Z" fill="#C4A068"/>
<path d="M34.8519 42.9226C33.2126 40.4005 30.4383 38.7612 27.4118 38.509V38.1307C29.6817 37.6263 31.321 35.6086 31.321 33.2126C31.321 30.3123 28.925 28.0424 26.1508 28.0424C23.2504 28.0424 20.9805 30.4384 20.9805 33.2126C20.9805 35.6086 22.6199 37.6263 24.8897 38.1307V38.509C22.2416 38.8873 19.9717 40.2744 18.4584 42.4182C11.6488 41.7877 6.10029 48.219 7.86574 55.0286C3.0738 60.0727 4.83925 68.3956 11.1444 71.1698C12.0272 77.8533 19.4673 82.0147 25.7725 78.6099C31.6993 82.1409 39.3917 78.61 40.7788 71.8004C47.2101 69.4044 49.3538 61.0815 44.8141 55.9113C46.8318 49.48 41.7876 42.6704 34.8519 42.9226ZM40.0222 65.7474C40.0222 65.7474 40.0222 65.6213 39.8961 65.6213C38.635 63.0992 36.3652 61.0815 33.717 60.3249C33.717 60.1988 33.717 59.9466 33.717 59.8205C33.717 59.6944 33.717 59.6944 33.717 59.5683C37.374 59.3161 40.2744 62.2165 40.0222 65.7474ZM26.2769 64.7385C23.6287 64.7385 21.2327 62.5948 21.2327 59.6944C21.2327 56.9201 23.6287 54.5242 26.6552 54.7764C29.4295 54.9025 31.321 57.2984 31.321 59.6944C31.1949 62.4687 28.925 64.7385 26.2769 64.7385ZM24.1331 50.741C24.1331 47.8407 26.2769 45.4447 29.0512 44.9403C29.0512 44.9403 28.9251 44.9403 28.9251 45.0664C26.6552 46.8318 25.268 49.48 25.1419 52.2543C24.8897 52.2543 24.6375 52.3804 24.3853 52.3804C24.2592 51.876 24.1331 51.3716 24.1331 50.741ZM19.4673 63.2253C18.9629 63.4775 18.4584 63.7297 17.954 63.8558C16.4408 64.2341 14.8014 63.9819 13.5404 63.0992C12.5316 62.4687 11.6489 61.4599 11.2705 60.3249L11.3966 60.451C13.1621 61.9643 15.432 62.7209 17.7018 62.7209C18.2062 62.7209 18.7107 62.7209 19.2151 62.5948C19.3412 62.7209 19.4673 62.9731 19.4673 63.2253ZM24.007 66.8823C24.2592 67.0084 24.5114 67.0084 24.7636 67.0084C24.6375 67.5128 24.5114 68.1433 24.2592 68.6478C23.6287 70.0349 22.3677 71.1698 20.8544 71.6742C19.7195 72.0526 18.4584 72.0526 17.3235 71.8004H17.4496C20.2239 71.1698 22.6199 69.4044 24.007 66.8823ZM30.1861 74.0702C31.4471 71.5481 31.5732 68.5217 30.4383 65.8735C30.6905 65.7474 30.8166 65.6213 30.9427 65.4952C31.321 65.8735 31.6993 66.3779 31.9515 66.8823C33.2126 69.5305 32.456 72.557 30.1861 74.0702C30.1861 74.1963 30.1861 74.1963 30.1861 74.0702ZM31.321 54.1458C31.1949 54.0197 30.9427 53.8936 30.8166 53.6414C32.8343 50.741 36.8696 50.2366 39.5178 52.6326H39.3917C36.4913 52.0021 33.5909 52.6326 31.321 54.1458ZM41.031 48.219C42.0398 49.48 42.6703 51.1194 42.6703 52.6326C42.5442 52.3804 42.292 52.0021 42.0398 51.7499C38.5089 47.3362 31.5732 47.7146 28.4206 52.5065C28.1684 52.3804 27.9162 52.3804 27.664 52.2543C27.664 52.2543 27.664 52.2543 27.5379 52.2543C28.1684 45.5708 36.7435 42.9226 41.031 48.219ZM23.5026 33.2126C23.5026 32.9604 23.5026 32.7082 23.6287 32.3299C25.0158 33.2126 25.8986 33.7171 25.8986 33.7171C26.0247 33.7171 26.0247 33.8432 26.1508 33.8432C26.2769 33.8432 26.403 33.8432 26.403 33.7171C26.403 33.7171 27.0335 33.3387 28.1684 32.7082C28.4206 32.5821 28.5467 32.0777 28.4206 31.8255C28.2945 31.5733 27.7901 31.4472 27.5379 31.5733C26.9074 31.9516 26.403 32.2038 26.1508 32.3299C25.7725 32.0777 25.1419 31.6994 24.2592 31.195C24.7636 30.6906 25.3941 30.4384 26.1508 30.4384C27.664 30.4384 28.7989 31.6994 28.7989 33.0865C28.7989 34.4737 27.5379 35.7347 26.1508 35.7347C24.7636 35.7347 23.5026 34.5998 23.5026 33.2126ZM26.5291 40.905C28.1684 40.905 29.8078 41.4094 31.0688 42.4182C30.6905 42.4182 30.3122 42.2921 30.06 42.2921C25.5202 42.2921 21.7371 46.0752 21.7371 50.741C21.7371 51.6238 21.8632 52.6326 22.1155 53.3892C22.1155 53.3892 21.9893 53.3892 21.9893 53.5153C21.8632 53.6414 21.611 53.7675 21.4849 53.8936C21.4849 53.8936 21.3588 53.8936 21.3588 54.0197C19.8456 52.6326 18.9629 50.6149 18.9629 48.4712C18.9629 47.3362 19.2151 46.2013 19.7195 45.1925C19.8456 44.9403 19.9717 44.6881 20.0978 44.4359C21.4849 42.2921 23.8809 40.905 26.5291 40.905ZM16.4408 48.3451V48.4712C16.4408 51.3716 17.7018 54.0197 19.7195 55.9113C19.5934 56.1635 19.4673 56.2896 19.3412 56.5418C18.8368 56.2896 18.3323 56.0374 17.8279 55.6591C15.6842 54.0197 15.0536 50.8671 16.4408 48.3451ZM15.6842 45.1925C15.432 45.4447 15.1798 45.6969 14.9275 45.9491C12.0272 49.6061 12.6577 54.7764 16.3147 57.6767C17.0713 58.3073 17.8279 58.6856 18.7107 59.0639C18.7107 59.3161 18.7107 59.4422 18.7107 59.6944C18.7107 59.8205 18.7107 59.9466 18.7107 60.0727C16.693 60.3249 14.5492 59.8205 12.9099 58.4334C12.0272 57.6767 11.2705 56.794 10.8922 55.9113C10.7661 55.6591 10.64 55.4069 10.5139 55.0286C9.00067 50.741 11.5227 46.3274 15.6842 45.1925ZM8.24405 58.9378C8.24405 59.3161 8.37016 59.6944 8.37016 59.9466C8.87457 62.0904 10.1356 63.9819 12.1533 65.1169C14.0448 66.2518 16.3147 66.6301 18.4584 66.1257C19.3412 65.8735 20.2239 65.6213 20.9805 65.1169L21.1066 65.243C21.2327 65.3691 21.3588 65.4952 21.4849 65.6213L21.611 65.7474C20.6022 67.5128 18.8368 68.7739 16.8191 69.2783C15.6842 69.5305 14.6753 69.5305 13.4143 69.2783C13.1621 69.2783 12.9099 69.1522 12.5316 69.0261C8.49626 67.6389 6.6047 62.847 8.24405 58.9378ZM14.4231 73.3136C14.6753 73.4397 15.0536 73.6919 15.3059 73.818C17.3235 74.8268 19.5934 74.9529 21.7371 74.1963C23.8809 73.4397 25.5203 71.9265 26.5291 69.9088C26.9074 69.0261 27.1596 68.1433 27.2857 67.2606C27.4118 67.2606 27.4118 67.2606 27.5379 67.2606C27.664 67.2606 27.9162 67.1345 28.0423 67.1345C28.1684 67.1345 28.1684 67.1345 28.2945 67.1345C29.0512 69.0261 28.925 71.2959 28.0423 73.1875C27.5379 74.1963 26.9074 75.079 26.0247 75.8357C25.7725 75.9618 25.5203 76.214 25.268 76.3401C21.3588 78.6099 16.4408 76.9706 14.4231 73.3136ZM34.0953 76.8445C32.5821 77.6011 30.9427 77.7272 29.4295 77.475C29.8078 77.3489 30.06 77.2228 30.4383 77.0967C35.6085 74.5746 36.7435 67.765 32.7082 63.6036V63.4775C32.8343 63.2253 32.9604 62.9731 33.0865 62.7209C39.6439 64.7385 40.4005 73.818 34.0953 76.8445ZM44.4358 64.2341C44.0575 65.8735 43.1748 67.2606 42.0398 68.2695C42.1659 67.8911 42.292 67.6389 42.292 67.2606C43.5531 61.9643 39.3917 57.0462 34.0953 57.0462C33.8431 57.0462 33.5909 57.0462 33.2126 57.0462C33.2126 57.0462 33.2126 56.9201 33.0865 56.9201C33.0865 56.794 32.9604 56.6679 32.8343 56.5418C32.8343 56.4157 32.7082 56.2896 32.7082 56.2896C38.3828 52.5065 46.0751 57.4245 44.4358 64.2341Z" fill="#C4A068"/>
<path d="M39.7699 22.746C40.9048 21.485 42.0397 20.2239 43.0486 18.8368C43.3008 18.5846 43.1747 18.2063 42.9225 17.9541C42.6703 17.7019 42.292 17.828 42.0397 18.0802C41.0309 19.3412 40.0221 20.7283 38.8872 21.9894C38.6349 22.2416 38.6349 22.6199 38.8872 22.8721C39.1394 22.9982 39.5177 22.9982 39.7699 22.746Z" fill="#C4A068"/>
<path d="M32.3298 29.8077C33.5908 28.7989 34.9779 27.6639 36.239 26.529C36.4912 26.2768 36.4912 25.8985 36.239 25.6463C35.9868 25.3941 35.6085 25.3941 35.3563 25.6463C34.0952 26.7812 32.8342 27.9161 31.5731 28.925C31.3209 29.1772 31.1948 29.5555 31.447 29.8077C31.6993 29.9338 32.0776 29.9338 32.3298 29.8077Z" fill="#C4A068"/>
<path d="M11.7751 21.8632C12.0273 22.1154 12.4056 22.1154 12.6578 21.9893C12.91 21.7371 12.91 21.3588 12.7839 21.1066C11.6489 19.8455 10.6401 18.5845 9.63129 17.1974C9.37908 16.9451 9.00077 16.819 8.74856 17.0713C8.49636 17.3235 8.37025 17.7018 8.62246 17.954C9.63129 19.3411 10.6401 20.6022 11.7751 21.8632Z" fill="#C4A068"/>
<path d="M19.0891 29.0512C19.3413 29.3034 19.7196 29.1773 19.9718 28.9251C20.224 28.6729 20.0979 28.2946 19.8457 28.0424C18.5847 27.0335 17.3236 25.8986 16.1887 24.7637C15.9365 24.5115 15.5582 24.5115 15.306 24.7637C15.0538 25.0159 15.0538 25.3942 15.306 25.6464C16.4409 26.7813 17.7019 27.9163 19.0891 29.0512Z" fill="#C4A068"/>
<path d="M48.2189 9.37906C47.9667 9.25296 47.5883 9.37906 47.3361 9.63127C46.5795 11.1445 45.6968 12.5317 44.8141 13.9188C44.688 14.171 44.688 14.5493 45.0663 14.8015C45.3185 14.9276 45.6968 14.9276 45.949 14.5493C46.8317 13.1622 47.7145 11.6489 48.4711 10.1357C48.5972 9.88348 48.4711 9.50516 48.2189 9.37906Z" fill="#C4A068"/>
<path d="M51.8758 0.0472137C51.4974 -0.0788899 51.2452 0.173317 51.1191 0.425525C50.6147 2.06487 49.9842 3.57812 49.3537 5.09136C49.2276 5.46967 49.3537 5.72188 49.732 5.97408C49.9842 6.10019 50.3625 5.97408 50.6147 5.59577C51.2452 4.08253 51.8758 2.44318 52.3802 0.803836C52.3802 0.425525 52.2541 0.173317 51.8758 0.0472137Z" fill="#C4A068"/>
<path d="M6.35257 13.9188C6.85698 13.9188 7.10919 13.4144 6.85699 12.9099C5.97426 11.5228 5.21764 10.0096 4.46101 8.49632C4.33491 8.24411 3.9566 8.11801 3.57829 8.24411C3.32608 8.37022 3.19998 8.74853 3.32608 9.12684C4.0827 10.6401 4.83933 12.1533 5.72205 13.5405C5.84815 13.9188 6.10036 13.9188 6.35257 13.9188Z" fill="#C4A068"/>
<path d="M1.18222 0.4256C1.05612 0.0472888 0.677807 -0.0788148 0.4256 0.0472889C0.047289 0.173393 -0.0788148 0.551704 0.0472888 0.803911C0.4256 2.06495 0.930014 3.32598 1.30833 4.58702C1.43443 4.83923 1.68664 4.96533 1.93884 4.96533C2.31715 4.96533 2.69547 4.46092 2.56936 4.08261C1.93884 2.82157 1.56053 1.68664 1.18222 0.4256Z" fill="#C4A068"/>
</svg>
