<svg width="127" height="80" viewBox="0 0 127 80" fill="none" xmlns="http://www.w3.org/2000/svg">
<path d="M113.068 24.8447C105.707 21.6719 96.3154 19.7175 86.1626 19.1845C85.8072 18.3469 85.3757 17.5854 84.8173 16.8747L74.6899 4.13289C71.2379 -0.207453 64.1817 -1.17197 54.8411 1.44239C45.7035 3.9806 35.373 9.6408 25.7785 17.357C16.1841 25.0731 8.41719 33.9569 3.94994 42.3583C-0.618841 50.9375 -1.25339 58.0699 2.19857 62.3848L12.326 75.1266C14.5089 77.8679 18.1132 79.2639 22.8342 79.2639C25.6009 79.2639 28.7229 78.7817 32.1748 77.8425C37.4036 76.3957 43.0384 73.9083 48.6986 70.6086C55.6533 73.4768 64.334 75.2789 73.7254 75.8627L75.8828 79.6447C76.0097 79.8731 76.2382 80 76.492 80H83.9543C84.2082 80 84.4366 79.8731 84.5635 79.6447L86.721 75.9135C96.6708 75.3297 105.884 73.4007 113.118 70.2787C122.028 66.446 126.926 61.268 126.926 55.7347V39.4394C126.875 33.8553 121.977 28.6774 113.068 24.8447ZM86.9494 22.5603C95.4524 23.0933 103.296 24.6924 109.489 27.1545C116.926 30.1242 121.165 34.1853 121.165 38.2464C121.165 40.3532 119.997 42.4599 117.865 44.4143C109.869 38.6526 97.6353 35.0229 84.2843 34.4391C86.3403 29.9465 87.254 25.9107 86.9494 22.5603ZM116.748 45.3534C114.87 46.8002 112.433 48.1455 109.489 49.313C101.747 52.4097 91.4421 54.1356 80.477 54.1356C77.025 54.1356 73.6492 53.958 70.4003 53.628C75.7813 48.1455 80.147 42.4345 83.0914 36.9012C83.269 36.5458 83.4721 36.1905 83.6498 35.8351C96.7469 36.3174 108.854 39.7948 116.748 45.3534ZM3.26462 61.5218C0.193386 57.6637 0.853321 51.0898 5.1429 43.0437C9.534 34.8199 17.1486 26.0884 26.6162 18.4738C36.0837 10.8591 46.2111 5.30046 55.171 2.81302C58.5215 1.87388 61.5166 1.417 64.1563 1.417C68.4205 1.417 71.644 2.63535 73.5477 5.02126C76.6189 8.87934 75.959 15.4533 71.6694 23.4994C67.2783 31.7232 59.6637 40.4547 50.1961 48.0693C40.7286 55.6839 30.6011 61.2426 21.6413 63.7301C12.8844 66.1668 6.36124 65.3799 3.26462 61.5218ZM31.7687 76.4719C23.0119 78.9086 16.4887 78.1217 13.4175 74.2636L6.43738 65.4814C8.21413 66.1921 10.3208 66.5475 12.6814 66.5475C15.448 66.5475 18.57 66.0652 22.022 65.1261C31.1596 62.5879 41.4901 56.9277 51.0845 49.2115C60.6789 41.4953 68.4459 32.6116 72.9131 24.2101C76.0605 18.3215 77.3296 13.0928 76.6951 9.00625L83.6751 17.7885C86.7464 21.6465 86.0864 28.2205 81.7969 36.2666C77.4058 44.4904 69.7911 53.2219 60.3236 60.8365C50.8815 68.4004 40.7286 73.9591 31.7687 76.4719ZM83.4975 78.5532H76.8727L73.5477 72.7661L76.8727 66.979H83.5229L86.8479 72.7661L83.4975 78.5532ZM72.7101 71.3955L71.9994 70.1517L75.3498 64.3139L75.7052 66.1668L72.7101 71.3955ZM76.5428 63.0194H83.8274L83.3198 65.583H77.025L76.5428 63.0194ZM84.665 66.1668L85.0204 64.3139L88.3708 70.1517L87.6601 71.3955L84.665 66.1668ZM125.454 55.7093C125.454 60.6588 120.86 65.3545 112.484 68.9588C105.631 71.9031 96.95 73.7814 87.5332 74.4159L89.7668 70.5071C89.8938 70.2787 89.8938 70.0248 89.7668 69.7964L85.2742 61.9533C85.2742 61.9533 85.2742 61.9533 85.2742 61.9279C85.2488 61.8772 85.2234 61.8264 85.1727 61.801C85.1473 61.7757 85.0965 61.7249 85.0458 61.6995C85.0204 61.6995 85.0204 61.6741 84.995 61.6741C84.9696 61.6487 84.9189 61.6487 84.8935 61.6234C84.8681 61.6234 84.8681 61.6234 84.8427 61.598H84.8173C84.7666 61.598 84.7412 61.598 84.6904 61.598H75.7052C75.6544 61.598 75.629 61.598 75.5782 61.598H75.5529C75.5275 61.598 75.5275 61.598 75.5021 61.6234C75.4513 61.6234 75.4259 61.6487 75.4006 61.6741C75.3752 61.6741 75.3752 61.6995 75.3498 61.6995C75.299 61.7249 75.2737 61.7503 75.2229 61.801C75.1721 61.8518 75.1468 61.8772 75.1214 61.9279C75.1214 61.9279 75.1214 61.9279 75.1214 61.9533L70.6287 69.7964C70.5018 70.0248 70.5018 70.2787 70.6287 70.5071L72.8624 74.3652C64.4609 73.756 56.6686 72.1569 50.2723 69.6695C53.9781 67.4105 57.6839 64.7961 61.2881 61.9026C62.6334 60.8365 63.9279 59.7451 65.1716 58.6283C70.0449 59.3644 75.2229 59.7705 80.5278 59.7705C92.8381 59.7705 104.412 57.7145 113.118 53.958C119.235 51.3182 123.474 48.0693 125.53 44.4651V55.7093H125.454ZM112.509 52.6381C103.955 56.3185 92.5843 58.3491 80.477 58.3491C75.6544 58.3491 70.9587 58.0191 66.4915 57.3846C67.3798 56.5723 68.2428 55.7347 69.0804 54.9225C72.7355 55.3286 76.5428 55.557 80.4516 55.557C91.5944 55.557 102.103 53.8057 109.996 50.6329C113.245 49.3384 115.885 47.8409 117.916 46.2164C117.941 46.2418 117.966 46.2418 117.992 46.2672L118.246 45.9626C121.088 43.6021 122.586 40.9623 122.586 38.2211C122.586 33.4746 118.119 29.0581 110.022 25.8092C103.625 23.2456 95.5286 21.6212 86.7464 21.0881C86.721 20.9358 86.6702 20.7582 86.6448 20.6059C96.417 21.1643 105.453 23.0679 112.535 26.1138C120.885 29.718 125.505 34.4137 125.505 39.3633C125.454 44.3381 120.86 49.0592 112.509 52.6381Z" fill="#C4A068"/>
<path d="M13.4936 62.131C16.0572 62.1057 19.0269 61.598 22.3265 60.6081C30.4742 58.1207 39.7387 52.8919 48.4447 45.9119C57.1508 38.9064 64.2578 30.9618 68.4712 23.5249C70.1972 20.479 71.3394 17.6362 71.9232 15.1234C71.9486 15.1234 71.9739 15.1234 72.0247 15.1234V14.7173C72.7608 11.0876 72.3039 8.09253 70.6033 5.96043C67.659 2.25464 61.415 1.62009 53.0643 4.1583C44.9166 6.64575 35.6521 11.8745 26.9461 18.8545C18.24 25.86 11.133 33.8046 6.9196 41.2416C2.60464 48.8816 1.86856 55.1002 4.81288 58.8314C6.46272 60.9127 9.15322 62.0295 12.6813 62.1564L13.4682 62.3341C13.4682 62.2579 13.4936 62.1818 13.4936 62.131ZM35.4491 53.1458V44.4397C36.5405 46.3687 38.2919 48.1963 40.6017 49.8969C38.9011 51.0898 37.1751 52.1559 35.4491 53.1458ZM47.5817 44.7951C46.9218 45.3281 46.2619 45.8357 45.5765 46.3434C45.0943 46.0388 44.6628 45.7342 44.2567 45.4042C46.4395 43.8559 48.9778 42.4599 51.7444 41.2416C50.3992 42.4599 49.0285 43.6275 47.5817 44.7951ZM54.6126 38.6018C50.2215 40.1755 46.338 42.1553 43.1399 44.4905C40.957 42.5107 39.764 40.3786 39.764 38.2465C39.764 34.1853 44.0282 30.1496 51.4398 27.1545C55.9071 25.3777 61.2119 24.0325 66.9991 23.2456C64.0801 28.2713 59.8159 33.5508 54.6126 38.6018ZM67.862 21.6973C61.5419 22.5096 55.7548 23.9056 50.9068 25.8346C42.8099 29.0835 38.3426 33.5 38.3426 38.2465C38.3426 40.9116 39.7387 43.4498 42.4038 45.7596L42.9368 46.4195C42.9876 46.3941 43.0383 46.3434 43.0891 46.318C43.4952 46.6479 43.9267 46.9779 44.409 47.2825C43.5714 47.9171 42.7338 48.5008 41.8961 49.0846C37.7335 46.1657 35.4999 42.8406 35.4999 39.4141C35.4999 34.4645 40.094 29.7689 48.4701 26.1646C54.0288 23.7787 60.8058 22.0781 68.1666 21.1897C68.0397 21.3674 67.9382 21.5197 67.862 21.6973ZM68.8519 19.6668C60.9835 20.5551 53.775 22.3065 47.8609 24.8447C38.9518 28.6774 34.0531 33.8554 34.0531 39.3887V53.958C29.865 56.2678 25.7785 58.0699 21.9458 59.2375C18.9507 60.1512 16.2602 60.6335 13.8997 60.6843C16.7679 50.6329 25.017 39.4394 36.2359 30.4034C47.4294 21.4181 60.0697 15.8087 70.451 15.1488C70.0957 16.5702 69.5626 18.0931 68.8519 19.6668ZM12.4275 60.6589C9.48319 60.5066 7.24956 59.5674 5.90431 57.9176C3.3661 54.7448 4.17833 48.907 8.13794 41.9269C12.2498 34.6422 19.2299 26.8499 27.8091 19.946C36.3882 13.042 45.5004 7.91486 53.4704 5.50356C56.6685 4.53904 59.5621 4.05677 61.9988 4.05677C65.4254 4.05677 68.0143 4.99591 69.4865 6.8488C70.8064 8.49864 71.2125 10.8846 70.7302 13.7527C59.9936 14.3111 46.871 20.0475 35.3476 29.3374C23.7733 38.6272 15.2957 50.2522 12.4275 60.6589Z" fill="#C4A068"/>
</svg>
