<svg width="125" height="25" viewBox="0 0 125 25" fill="none" xmlns="http://www.w3.org/2000/svg">
<path d="M107.681 8.37342V7.40342C107.681 5.15342 109.491 2.94342 111.741 2.73342C114.421 2.47342 116.681 4.58342 116.681 7.21342V8.59342" stroke="#5B5B5B" stroke-width="1.5" stroke-miterlimit="10" stroke-linecap="round" stroke-linejoin="round"/>
<path d="M109.181 22.7034H115.181C119.201 22.7034 119.921 21.0934 120.131 19.1334L120.881 13.1334C121.151 10.6934 120.451 8.70343 116.181 8.70343H108.181C103.911 8.70343 103.211 10.6934 103.481 13.1334L104.231 19.1334C104.441 21.0934 105.161 22.7034 109.181 22.7034Z" stroke="#5B5B5B" stroke-width="1.5" stroke-miterlimit="10" stroke-linecap="round" stroke-linejoin="round"/>
<path d="M115.677 12.7034H115.686" stroke="#5B5B5B" stroke-width="2" stroke-linecap="round" stroke-linejoin="round"/>
<path d="M108.676 12.7034H108.685" stroke="#5B5B5B" stroke-width="2" stroke-linecap="round" stroke-linejoin="round"/>
<path d="M62.8014 21.5134C62.4614 21.6334 61.9014 21.6334 61.5614 21.5134C58.6614 20.5234 52.1814 16.3934 52.1814 9.39344C52.1814 6.30344 54.6714 3.80344 57.7414 3.80344C59.5614 3.80344 61.1714 4.68344 62.1814 6.04344C63.1914 4.68344 64.8114 3.80344 66.6214 3.80344C69.6914 3.80344 72.1814 6.30344 72.1814 9.39344C72.1814 16.3934 65.7014 20.5234 62.8014 21.5134Z" stroke="#5B5B5B" stroke-width="1.5" stroke-linecap="round" stroke-linejoin="round"/>
<path d="M12.3014 14.2334C12.2814 14.2334 12.2514 14.2334 12.2314 14.2334C12.2014 14.2334 12.1614 14.2334 12.1314 14.2334C9.86138 14.1634 8.16138 12.3934 8.16138 10.2134C8.16138 7.99343 9.97138 6.18343 12.1914 6.18343C14.4114 6.18343 16.2214 7.99343 16.2214 10.2134C16.2114 12.4034 14.5014 14.1634 12.3314 14.2334C12.3114 14.2334 12.3114 14.2334 12.3014 14.2334ZM12.1814 7.67343C10.7814 7.67343 9.65138 8.81343 9.65138 10.2034C9.65138 11.5734 10.7214 12.6834 12.0814 12.7334C12.1114 12.7234 12.2114 12.7234 12.3114 12.7334C13.6514 12.6634 14.7014 11.5634 14.7114 10.2034C14.7114 8.81343 13.5814 7.67343 12.1814 7.67343Z" fill="#5B5B5B"/>
<path d="M12.1814 23.4534C9.49135 23.4534 6.92135 22.4534 4.93135 20.6334C4.75135 20.4734 4.67135 20.2334 4.69135 20.0034C4.82135 18.8134 5.56135 17.7034 6.79135 16.8834C9.77135 14.9034 14.6014 14.9034 17.5714 16.8834C18.8014 17.7134 19.5414 18.8134 19.6714 20.0034C19.7014 20.2434 19.6114 20.4734 19.4314 20.6334C17.4414 22.4534 14.8714 23.4534 12.1814 23.4534ZM6.26135 19.8034C7.92135 21.1934 10.0114 21.9534 12.1814 21.9534C14.3514 21.9534 16.4414 21.1934 18.1014 19.8034C17.9214 19.1934 17.4414 18.6034 16.7314 18.1234C14.2714 16.4834 10.1014 16.4834 7.62135 18.1234C6.91135 18.6034 6.44135 19.1934 6.26135 19.8034Z" fill="#5B5B5B"/>
<path d="M12.1814 23.4534C6.2514 23.4534 1.4314 18.6334 1.4314 12.7034C1.4314 6.77343 6.2514 1.95343 12.1814 1.95343C18.1114 1.95343 22.9314 6.77343 22.9314 12.7034C22.9314 18.6334 18.1114 23.4534 12.1814 23.4534ZM12.1814 3.45343C7.0814 3.45343 2.9314 7.60343 2.9314 12.7034C2.9314 17.8034 7.0814 21.9534 12.1814 21.9534C17.2814 21.9534 21.4314 17.8034 21.4314 12.7034C21.4314 7.60343 17.2814 3.45343 12.1814 3.45343Z" fill="#5B5B5B"/>
</svg>
