<svg width="90" height="27" viewBox="0 0 90 27" fill="none" xmlns="http://www.w3.org/2000/svg">
<path d="M4.12351 7.04174C4.66971 6.67314 5.10047 6.32439 5.4158 5.99549C5.73113 5.66091 6.22383 5.12786 6.8939 4.39633C7.5696 3.66481 7.97221 3.17996 8.10172 2.94178C8.23686 2.69794 8.30443 2.52215 8.30443 2.4144C8.30443 2.28398 8.22842 2.16772 8.07638 2.06565C7.92998 1.95791 7.75542 1.88702 7.55271 1.853C7.32748 1.81897 7.21486 1.75376 7.21486 1.65736C7.21486 1.55528 7.30777 1.50425 7.49359 1.50425C7.533 1.50425 7.59494 1.50141 7.67941 1.49574C7.88775 1.4844 8.51277 1.47873 9.55448 1.47873C10.2696 1.47873 10.7679 1.48723 11.0495 1.50425C11.331 1.51559 11.4718 1.56662 11.4718 1.65736C11.4718 1.75376 11.393 1.8133 11.2353 1.83598C10.7116 1.9097 10.2555 2.05431 9.867 2.2698C9.4841 2.47962 8.88723 2.97864 8.07638 3.76688C7.26554 4.54944 6.56731 5.30933 5.9817 6.04653C6.63488 6.04653 7.18389 6.14009 7.62873 6.32723C8.07357 6.50869 8.44239 6.82626 8.73519 7.27992C9.03363 7.72791 9.28983 8.49062 9.50381 9.56807C9.87544 11.377 10.5399 12.3212 11.4971 12.4006C11.7111 12.4176 11.8181 12.4772 11.8181 12.5792C11.8181 12.6643 11.7674 12.7068 11.6661 12.7068L10.889 12.6898C9.7403 12.6898 9.08149 12.7012 8.91257 12.7238C8.63665 12.3552 8.45646 11.9923 8.372 11.6351C8.29317 11.2778 8.18337 10.6512 8.0426 9.7552C7.91872 8.97264 7.71319 8.24962 7.42602 7.58614C7.14447 6.92266 6.70245 6.59092 6.09995 6.59092C5.70016 6.59092 5.28629 6.72418 4.85834 6.99071C4.4304 7.25156 4.18264 7.4472 4.11507 7.57763C4.0475 7.70239 4.01371 8.45093 4.01371 9.82325C4.01371 10.7873 4.04187 11.3827 4.09818 11.6095C4.16012 11.8364 4.28963 12.015 4.48671 12.1454C4.68942 12.2759 4.9597 12.3581 5.29755 12.3921C5.50026 12.4148 5.60162 12.4772 5.60162 12.5792C5.60162 12.6756 5.53123 12.7238 5.39046 12.7238L5.2891 12.7153C5.13144 12.704 4.55709 12.6983 3.56606 12.6983C2.37232 12.6983 1.69661 12.7097 1.53895 12.7324C1.46012 12.7437 1.40099 12.7494 1.36158 12.7494C1.23207 12.7494 1.16731 12.6983 1.16731 12.5963C1.16731 12.5055 1.24614 12.4488 1.40381 12.4261C1.70224 12.3864 1.92466 12.3042 2.07106 12.1795C2.2231 12.049 2.31882 11.9016 2.35824 11.7371C2.40329 11.567 2.45959 11.0056 2.52716 10.0529C2.60037 9.10023 2.63697 8.30632 2.63697 7.6712C2.63697 6.83193 2.62852 6.12025 2.61163 5.53616C2.59474 4.95207 2.56095 4.31694 2.51027 3.63078C2.45959 2.93895 2.40329 2.52498 2.34135 2.38888C2.27941 2.24712 2.19213 2.13937 2.07951 2.06565C1.96689 1.98626 1.70224 1.92105 1.28556 1.87001C1.14479 1.853 1.0744 1.80196 1.0744 1.7169C1.0744 1.59214 1.20391 1.52976 1.46293 1.52976L2.14708 1.52126L5.14552 1.48723C5.29755 1.48723 5.37357 1.53543 5.37357 1.63184C5.37357 1.68855 5.34823 1.73108 5.29755 1.75943C5.24687 1.78211 5.09202 1.81047 4.833 1.84449C4.56835 1.87852 4.40224 1.91254 4.33467 1.94656C4.2671 1.97492 4.19953 2.04864 4.13196 2.16772C4.06439 2.28114 4.03061 2.47111 4.03061 2.73764C4.03061 3.37843 4.06158 4.81313 4.12351 7.04174Z" fill="#800020"/>
<path d="M14.1493 1.23205C14.3632 1.23205 14.5547 1.31144 14.7236 1.47022C14.8925 1.629 14.977 1.80196 14.977 1.9891C14.977 2.21026 14.9066 2.40023 14.7658 2.55901C14.6307 2.71779 14.4421 2.79718 14.1999 2.79718C13.986 2.79718 13.7945 2.72913 13.6256 2.59303C13.4567 2.45126 13.3722 2.26129 13.3722 2.02312C13.3722 1.79062 13.4426 1.60065 13.5834 1.45321C13.7298 1.30577 13.9184 1.23205 14.1493 1.23205ZM15.0868 5.39155L15.0784 7.30544L15.0953 9.09172V10.4357L15.0868 11.4564C15.0868 11.8647 15.1516 12.1256 15.2811 12.239C15.4162 12.3467 15.6161 12.4063 15.8808 12.4176C16.1905 12.4346 16.3453 12.4999 16.3453 12.6133C16.3453 12.704 16.2862 12.7494 16.1679 12.7494C16.1229 12.7494 16.0722 12.7465 16.0159 12.7409C15.4922 12.6728 15.0052 12.6388 14.5547 12.6388C13.8339 12.6388 13.3356 12.6615 13.0597 12.7068C13.0034 12.7182 12.9471 12.7238 12.8908 12.7238C12.7556 12.7238 12.6881 12.6728 12.6881 12.5707C12.6881 12.4687 12.8457 12.3978 13.1611 12.3581C13.4764 12.3184 13.6763 12.2503 13.7607 12.1539C13.8508 12.0519 13.8959 11.7683 13.8959 11.3033L13.9466 7.78178C13.9466 6.84043 13.8762 6.2847 13.7354 6.11457C13.5946 5.93878 13.3215 5.84521 12.9161 5.83387C12.781 5.83387 12.7134 5.78851 12.7134 5.69777C12.7134 5.64674 12.7359 5.60704 12.781 5.57869C12.826 5.55033 13.1611 5.51347 13.7861 5.46811C14.4111 5.42274 14.8447 5.39722 15.0868 5.39155Z" fill="#800020"/>
<path d="M19.5971 7.32245C19.9519 6.68732 20.3291 6.21098 20.7289 5.89342C21.1344 5.57585 21.5595 5.41707 22.0043 5.41707C22.314 5.41707 22.5815 5.53049 22.8067 5.75732C23.032 5.97848 23.1446 6.23083 23.1446 6.51436C23.1446 7.05309 22.9165 7.32245 22.4604 7.32245C22.2465 7.32245 22.0663 7.17217 21.9199 6.87162C21.7397 6.49168 21.5004 6.30171 21.2019 6.30171C20.9204 6.30171 20.6304 6.46049 20.332 6.77805C20.0335 7.09562 19.8336 7.44437 19.7323 7.82431C19.6309 8.19858 19.5802 8.98682 19.5802 10.189C19.5802 11.2891 19.6253 11.9214 19.7154 12.0859C19.8055 12.2447 20.0363 12.3467 20.408 12.3921C20.5093 12.4034 20.56 12.4431 20.56 12.5112C20.56 12.6303 20.4277 12.6898 20.163 12.6898H17.4687C17.2772 12.6898 17.1815 12.6416 17.1815 12.5452C17.1815 12.4545 17.3082 12.4034 17.5616 12.3921C17.9163 12.3694 18.1359 12.2588 18.2204 12.0604C18.3048 11.8619 18.3471 11.1304 18.3471 9.86578C18.3471 8.01144 18.3077 6.89714 18.2288 6.52287C18.1556 6.1486 17.8741 5.95012 17.3842 5.92744C17.1815 5.9161 17.0801 5.86223 17.0801 5.76582C17.0801 5.71479 17.0998 5.67793 17.1393 5.65524C17.1843 5.62689 17.4433 5.59854 17.9163 5.57018L19.4704 5.48512C19.5099 5.79134 19.5521 6.40378 19.5971 7.32245Z" fill="#800020"/>
<path d="M27.0383 6.17412C26.9595 7.42736 26.9201 8.65791 26.9201 9.86578C26.9201 10.7958 27.0299 11.4026 27.2495 11.6861C27.4691 11.9696 27.7844 12.1114 28.1955 12.1114C28.4939 12.1114 28.8233 12.0008 29.1837 11.7797C29.3132 11.7003 29.392 11.6606 29.4202 11.6606C29.4934 11.6606 29.53 11.7003 29.53 11.7797C29.53 11.9158 29.3301 12.1313 28.9303 12.4261C28.5305 12.721 28.0406 12.8685 27.4606 12.8685C26.8863 12.8685 26.4555 12.6671 26.1683 12.2645C25.8812 11.8619 25.7376 11.2608 25.7376 10.4612C25.7376 9.62761 25.7883 8.19858 25.8896 6.17412C25.8502 6.16278 25.5827 6.14293 25.0872 6.11457L24.5804 6.08055C24.4566 6.07488 24.3946 6.03235 24.3946 5.95296C24.3946 5.87924 24.465 5.81969 24.6058 5.77433C24.8366 5.68927 25.2252 5.43975 25.7714 5.02579C26.3176 4.61182 26.6357 4.02773 26.7258 3.27352C26.7483 3.07505 26.8103 2.97581 26.9116 2.97581C27.013 2.97581 27.0637 3.0552 27.0637 3.21398C27.0637 3.26502 27.0608 3.31889 27.0552 3.3756C27.0383 3.59676 27.0299 3.85194 27.0299 4.14115L27.0383 5.46811L28.8881 5.44259C29.2034 5.44259 29.3667 5.47945 29.3779 5.55317C29.3723 5.81402 29.3301 5.97848 29.2512 6.04653C28.9584 6.04653 28.2208 6.08906 27.0383 6.17412Z" fill="#800020"/>
<path d="M31.7682 1.23205C31.9822 1.23205 32.1737 1.31144 32.3426 1.47022C32.5115 1.629 32.596 1.80196 32.596 1.9891C32.596 2.21026 32.5256 2.40023 32.3848 2.55901C32.2497 2.71779 32.061 2.79718 31.8189 2.79718C31.6049 2.79718 31.4135 2.72913 31.2446 2.59303C31.0756 2.45126 30.9912 2.26129 30.9912 2.02312C30.9912 1.79062 31.0616 1.60065 31.2023 1.45321C31.3487 1.30577 31.5374 1.23205 31.7682 1.23205ZM32.7058 5.39155L32.6973 7.30544L32.7142 9.09172V10.4357L32.7058 11.4564C32.7058 11.8647 32.7705 12.1256 32.9 12.239C33.0352 12.3467 33.2351 12.4063 33.4997 12.4176C33.8094 12.4346 33.9643 12.4999 33.9643 12.6133C33.9643 12.704 33.9052 12.7494 33.7869 12.7494C33.7419 12.7494 33.6912 12.7465 33.6349 12.7409C33.1112 12.6728 32.6241 12.6388 32.1737 12.6388C31.4529 12.6388 30.9546 12.6615 30.6787 12.7068C30.6224 12.7182 30.5661 12.7238 30.5097 12.7238C30.3746 12.7238 30.307 12.6728 30.307 12.5707C30.307 12.4687 30.4647 12.3978 30.78 12.3581C31.0954 12.3184 31.2952 12.2503 31.3797 12.1539C31.4698 12.0519 31.5149 11.7683 31.5149 11.3033L31.5655 7.78178C31.5655 6.84043 31.4951 6.2847 31.3544 6.11457C31.2136 5.93878 30.9405 5.84521 30.5351 5.83387C30.3999 5.83387 30.3324 5.78851 30.3324 5.69777C30.3324 5.64674 30.3549 5.60704 30.3999 5.57869C30.445 5.55033 30.78 5.51347 31.4051 5.46811C32.0301 5.42274 32.4637 5.39722 32.7058 5.39155Z" fill="#800020"/>
<path d="M42.3008 7.04174C42.847 6.67314 43.2777 6.32439 43.5931 5.99549C43.9084 5.66091 44.4011 5.12786 45.0712 4.39633C45.7469 3.66481 46.1495 3.17996 46.279 2.94178C46.4141 2.69794 46.4817 2.52215 46.4817 2.4144C46.4817 2.28398 46.4057 2.16772 46.2536 2.06565C46.1072 1.95791 45.9327 1.88702 45.73 1.853C45.5047 1.81897 45.3921 1.75376 45.3921 1.65736C45.3921 1.55528 45.485 1.50425 45.6708 1.50425C45.7103 1.50425 45.7722 1.50141 45.8567 1.49574C46.065 1.4844 46.69 1.47873 47.7317 1.47873C48.4469 1.47873 48.9452 1.48723 49.2267 1.50425C49.5083 1.51559 49.6491 1.56662 49.6491 1.65736C49.6491 1.75376 49.5702 1.8133 49.4126 1.83598C48.8889 1.9097 48.4328 2.05431 48.0443 2.2698C47.6614 2.47962 47.0645 2.97864 46.2536 3.76688C45.4428 4.54944 44.7446 5.30933 44.159 6.04653C44.8121 6.04653 45.3612 6.14009 45.806 6.32723C46.2508 6.50869 46.6196 6.82626 46.9124 7.27992C47.2109 7.72791 47.4671 8.49062 47.6811 9.56807C48.0527 11.377 48.7171 12.3212 49.6744 12.4006C49.8884 12.4176 49.9953 12.4772 49.9953 12.5792C49.9953 12.6643 49.9447 12.7068 49.8433 12.7068L49.0663 12.6898C47.9176 12.6898 47.2588 12.7012 47.0898 12.7238C46.8139 12.3552 46.6337 11.9923 46.5493 11.6351C46.4704 11.2778 46.3606 10.6512 46.2199 9.7552C46.096 8.97264 45.8904 8.24962 45.6033 7.58614C45.3217 6.92266 44.8797 6.59092 44.2772 6.59092C43.8774 6.59092 43.4636 6.72418 43.0356 6.99071C42.6077 7.25156 42.3599 7.4472 42.2923 7.57763C42.2248 7.70239 42.191 8.45093 42.191 9.82325C42.191 10.7873 42.2191 11.3827 42.2754 11.6095C42.3374 11.8364 42.4669 12.015 42.664 12.1454C42.8667 12.2759 43.137 12.3581 43.4748 12.3921C43.6775 12.4148 43.7789 12.4772 43.7789 12.5792C43.7789 12.6756 43.7085 12.7238 43.5677 12.7238L43.4664 12.7153C43.3087 12.704 42.7344 12.6983 41.7433 12.6983C40.5496 12.6983 39.8739 12.7097 39.7162 12.7324C39.6374 12.7437 39.5783 12.7494 39.5388 12.7494C39.4093 12.7494 39.3446 12.6983 39.3446 12.5963C39.3446 12.5055 39.4234 12.4488 39.5811 12.4261C39.8795 12.3864 40.1019 12.3042 40.2483 12.1795C40.4004 12.049 40.4961 11.9016 40.5355 11.7371C40.5805 11.567 40.6369 11.0056 40.7044 10.0529C40.7776 9.10023 40.8142 8.30632 40.8142 7.6712C40.8142 6.83193 40.8058 6.12025 40.7889 5.53616C40.772 4.95207 40.7382 4.31694 40.6875 3.63078C40.6369 2.93895 40.5805 2.52498 40.5186 2.38888C40.4567 2.24712 40.3694 2.13937 40.2568 2.06565C40.1442 1.98626 39.8795 1.92105 39.4628 1.87001C39.322 1.853 39.2517 1.80196 39.2517 1.7169C39.2517 1.59214 39.3812 1.52976 39.6402 1.52976L40.3243 1.52126L43.3228 1.48723C43.4748 1.48723 43.5508 1.53543 43.5508 1.63184C43.5508 1.68855 43.5255 1.73108 43.4748 1.75943C43.4241 1.78211 43.2693 1.81047 43.0103 1.84449C42.7456 1.87852 42.5795 1.91254 42.5119 1.94656C42.4444 1.97492 42.3768 2.04864 42.3092 2.16772C42.2416 2.28114 42.2079 2.47111 42.2079 2.73764C42.2079 3.37843 42.2388 4.81313 42.3008 7.04174Z" fill="#800020"/>
<path d="M52.7573 5.55317C52.7854 5.92177 52.8108 6.98787 52.8333 8.75148C52.8446 9.85161 52.8727 10.586 52.9178 10.9546C52.9628 11.3175 53.1036 11.618 53.3401 11.8562C53.5822 12.0944 53.8581 12.2135 54.1678 12.2135C54.5732 12.2135 54.9787 12.0235 55.3841 11.6436C55.7951 11.2636 56.0485 10.8582 56.1443 10.4272C56.24 9.99054 56.2878 8.99249 56.2878 7.43303C56.2878 6.70717 56.2428 6.26769 56.1527 6.11457C56.0626 5.96146 55.843 5.87357 55.4939 5.85088C55.3644 5.84521 55.2996 5.79701 55.2996 5.70628C55.2996 5.6439 55.3193 5.60421 55.3588 5.58719C55.3982 5.56451 55.5249 5.55317 55.7388 5.55317H57.4281C57.4788 6.17128 57.5041 6.86312 57.5041 7.62867L57.4365 10.827C57.4365 11.4848 57.49 11.8988 57.597 12.0689C57.7096 12.239 57.8842 12.3354 58.1207 12.3581C58.2671 12.3808 58.3403 12.4375 58.3403 12.5282C58.3403 12.6303 58.1967 12.6813 57.9095 12.6813H56.575C56.3441 12.6813 56.2287 12.6048 56.2287 12.4517C56.2287 12.4063 56.2315 12.3552 56.2372 12.2985C56.2541 12.1284 56.2625 11.9555 56.2625 11.7797C56.2625 11.6322 56.2541 11.4167 56.2372 11.1332C55.8092 11.6889 55.3644 12.1057 54.9026 12.3836C54.4409 12.6615 53.9595 12.8004 53.4583 12.8004C53.0304 12.8004 52.67 12.6955 52.3772 12.4857C52.09 12.2759 51.8986 12.0235 51.8029 11.7286C51.7128 11.4281 51.6508 10.6852 51.617 9.50002C51.5833 8.31483 51.5664 7.38483 51.5664 6.71C51.5664 6.34141 51.5467 6.11174 51.5072 6.02101C51.4678 5.93027 51.3439 5.87924 51.1356 5.8679C50.9104 5.85088 50.7977 5.79418 50.7977 5.69777C50.7977 5.60137 50.9329 5.55317 51.2032 5.55317H52.7573Z" fill="#800020"/>
<path d="M61.6681 5.41707C61.8033 5.75165 61.8849 6.31589 61.9131 7.10979C62.2622 6.55406 62.6479 6.13726 63.0702 5.85939C63.4982 5.58152 63.9627 5.44259 64.4639 5.44259C64.8468 5.44259 65.2156 5.51631 65.5703 5.66375C65.9307 5.80552 66.2066 6.05503 66.3981 6.41229C66.5951 6.76388 66.6937 7.36498 66.6937 8.21559L66.643 11.0822C66.643 11.6095 66.6852 11.9413 66.7697 12.0774C66.8598 12.2078 67.0484 12.3127 67.3356 12.3921C67.5327 12.4488 67.6312 12.5112 67.6312 12.5792C67.6312 12.6643 67.5834 12.7068 67.4876 12.7068C67.4482 12.7068 67.4088 12.704 67.3694 12.6983C67.1104 12.6416 66.7275 12.6133 66.2207 12.6133C65.7646 12.6133 65.2747 12.6331 64.751 12.6728C64.5427 12.6728 64.4385 12.6246 64.4385 12.5282C64.4385 12.4602 64.4948 12.4148 64.6074 12.3921C64.9171 12.3241 65.1199 12.2532 65.2156 12.1795C65.3113 12.1057 65.3789 12.0093 65.4183 11.8902C65.4577 11.7655 65.4887 11.3544 65.5112 10.6569C65.5394 9.95935 65.5534 9.39227 65.5534 8.95563C65.5534 7.7591 65.4042 6.96235 65.1058 6.5654C64.8073 6.16845 64.4357 5.96997 63.9909 5.96997C63.3321 5.96997 62.783 6.33006 62.3438 7.05025C61.9103 7.76477 61.6935 8.95846 61.6935 10.6313C61.6935 11.3912 61.7413 11.8761 61.8371 12.0859C61.9384 12.29 62.1862 12.4148 62.5803 12.4602C62.7042 12.4715 62.7662 12.5254 62.7662 12.6218C62.7662 12.7012 62.7042 12.7409 62.5803 12.7409L62.1411 12.7068C61.9835 12.6955 61.4626 12.6898 60.5786 12.6898L59.9029 12.7068C59.6551 12.7068 59.5312 12.6615 59.5312 12.5707C59.5312 12.4743 59.6664 12.4006 59.9366 12.3496C60.1957 12.2985 60.3702 12.2106 60.4603 12.0859C60.5504 11.9555 60.6095 11.5302 60.6377 10.81C60.6715 10.0898 60.6884 9.19096 60.6884 8.11352C60.6884 7.10979 60.6208 6.48601 60.4857 6.24217C60.3505 5.99832 60.1619 5.84805 59.9198 5.79134C59.7001 5.7403 59.5903 5.66942 59.5903 5.57869C59.5903 5.48228 59.6748 5.43408 59.8437 5.43408L60.5279 5.44259C60.6011 5.44259 60.9812 5.43408 61.6681 5.41707Z" fill="#800020"/>
<path d="M70.5114 0.83226C70.6916 0.83226 70.8577 0.903145 71.0097 1.04491C71.1618 1.18101 71.2378 1.35397 71.2378 1.56379C71.2378 1.76794 71.1618 1.93806 71.0097 2.07416C70.8577 2.20458 70.6916 2.2698 70.5114 2.2698C70.3312 2.2698 70.1679 2.20458 70.0215 2.07416C69.8751 1.93806 69.8019 1.7651 69.8019 1.55528C69.8019 1.36815 69.8639 1.20086 69.9877 1.05342C70.1116 0.90598 70.2862 0.83226 70.5114 0.83226ZM71.3307 5.39155C71.2969 7.81864 71.28 9.23916 71.28 9.65313C71.28 12.0235 71.249 13.5971 71.1871 14.374C71.1308 15.1566 70.8464 15.8258 70.334 16.3815C69.8216 16.9429 69.1994 17.2236 68.4674 17.2236C68.0507 17.2236 67.6847 17.1073 67.3694 16.8748C67.0484 16.6423 66.8879 16.3106 66.8879 15.8796C66.8879 15.6301 66.9612 15.4288 67.1076 15.2757C67.254 15.1283 67.4116 15.0545 67.5805 15.0545C67.7551 15.0545 67.9043 15.1112 68.0282 15.2247C68.1464 15.3381 68.2056 15.494 68.2056 15.6925C68.2056 15.7889 68.169 15.9335 68.0958 16.1263C68.0507 16.2511 68.0282 16.3588 68.0282 16.4495C68.0282 16.597 68.0789 16.7076 68.1802 16.7813C68.2816 16.8607 68.4308 16.9004 68.6279 16.9004C68.9657 16.9004 69.2698 16.7813 69.5401 16.5431C69.8104 16.3049 69.9765 16.0129 70.0384 15.667C70.1003 15.3211 70.1341 14.3145 70.1398 12.6473L70.1567 7.399C70.1567 6.70717 70.1116 6.26769 70.0215 6.08055C69.9371 5.89341 69.7146 5.79985 69.3543 5.79985C69.2923 5.79985 69.2276 5.80268 69.16 5.80835C68.9179 5.80835 68.7968 5.75165 68.7968 5.63823C68.7968 5.53049 68.9601 5.47378 69.2867 5.46811C70.0187 5.45677 70.7 5.43125 71.3307 5.39155Z" fill="#800020"/>
<path d="M1.89571 18.9021V24.2609C1.89571 25.0634 1.80139 25.6489 1.61276 26.0175C1.42694 26.3889 1.11584 26.5746 0.679443 26.5746V26.379C0.949725 26.379 1.12991 26.2585 1.22001 26.0175C1.3101 25.7793 1.35515 25.3271 1.35515 24.6607V18.9021H1.89571Z" fill="#C4A068"/>
<path d="M8.90951 18.9021H12.685L12.8877 19.9739H12.685C12.6343 19.8179 12.5822 19.6917 12.5288 19.5953C12.4781 19.4989 12.4063 19.4124 12.3134 19.3359C12.2233 19.2565 12.1093 19.1998 11.9713 19.1658C11.8333 19.1317 11.663 19.1147 11.4603 19.1147H9.42474V21.6155H12.2965V22.0579H9.42474V24.346H12.9468V24.8564H8.90951V18.9021Z" fill="#C4A068"/>
<path d="M25.0453 24.8564H24.775L23.1196 20.0079L21.3458 24.8564H21.0756L19.0484 18.9021H19.6312L21.3965 23.9888L23.2547 18.9021H23.3138L25.0876 24.0143C25.0876 24.0143 25.5803 22.6731 26.5657 19.9909C26.622 19.8378 26.6572 19.7059 26.6712 19.5953C26.6853 19.4819 26.6839 19.3954 26.667 19.3359C26.6529 19.2763 26.622 19.2296 26.5741 19.1955C26.5262 19.1587 26.4798 19.136 26.4347 19.1275C26.3897 19.119 26.3348 19.1147 26.27 19.1147V18.9021H27.1822V19.0467L25.0453 24.8564Z" fill="#C4A068"/>
<path d="M33.5034 18.9021H37.2789L37.4816 19.9739H37.2789C37.2283 19.8179 37.1762 19.6917 37.1227 19.5953C37.072 19.4989 37.0002 19.4124 36.9073 19.3359C36.8172 19.2565 36.7032 19.1998 36.5652 19.1658C36.4273 19.1317 36.2569 19.1147 36.0542 19.1147H34.0187V21.6155H36.8904V22.0579H34.0187V24.346H37.5408V24.8564H33.5034V18.9021Z" fill="#C4A068"/>
<path d="M44.3012 24.8564V18.9021H44.8164V24.6437H46.4634C46.6324 24.6437 46.7844 24.6239 46.9195 24.5842C47.0575 24.5445 47.1673 24.4977 47.2489 24.4438C47.3306 24.3871 47.4038 24.3177 47.4685 24.2354C47.5361 24.1504 47.584 24.0781 47.6121 24.0185C47.6403 23.959 47.6684 23.8895 47.6966 23.8101H47.9584L47.6206 24.8564H44.3012Z" fill="#C4A068"/>
<path d="M54.1107 24.8564V18.9021H54.6259V24.6437H56.273C56.4419 24.6437 56.5939 24.6239 56.7291 24.5842C56.867 24.5445 56.9768 24.4977 57.0585 24.4438C57.1401 24.3871 57.2133 24.3177 57.2781 24.2354C57.3456 24.1504 57.3935 24.0781 57.4217 24.0185C57.4498 23.959 57.478 23.8895 57.5061 23.8101H57.768L57.4301 24.8564H54.1107Z" fill="#C4A068"/>
<path d="M63.8189 18.9021H67.5944L67.7971 19.9739H67.5944C67.5437 19.8179 67.4916 19.6917 67.4381 19.5953C67.3875 19.4989 67.3157 19.4124 67.2227 19.3359C67.1327 19.2565 67.0186 19.1998 66.8807 19.1658C66.7427 19.1317 66.5724 19.1147 66.3697 19.1147H64.3341V21.6155H67.2059V22.0579H64.3341V24.346H67.8562V24.8564H63.8189V18.9021Z" fill="#C4A068"/>
<path d="M74.6082 18.9021H76.5677C76.9422 18.9021 77.2688 18.9503 77.5475 19.0467C77.829 19.1402 78.0472 19.2678 78.2021 19.4295C78.3569 19.5911 78.471 19.7669 78.5442 19.9568C78.6174 20.144 78.654 20.3453 78.654 20.5608C78.654 21.2725 78.2767 21.7857 77.5222 22.1004C77.8966 22.7128 78.157 23.1325 78.3034 23.3593C78.6441 23.8923 78.9186 24.2425 79.127 24.4098C79.324 24.5686 79.5605 24.6494 79.8364 24.6522L79.8449 24.8564H79.279C79.096 24.8564 78.9299 24.8266 78.7807 24.7671C78.6343 24.7047 78.5076 24.6253 78.4006 24.5289C78.2964 24.4325 78.1838 24.2978 78.0627 24.1248C77.9417 23.9519 77.8319 23.7804 77.7333 23.6102C77.6376 23.4401 77.5067 23.2218 77.3406 22.9553C77.1745 22.6887 77.0098 22.4406 76.8465 22.211H75.1234V24.8564H74.6082V18.9021ZM75.1234 19.421V21.9983H76.5086C76.6916 21.9983 76.8577 21.987 77.0069 21.9643C77.1562 21.9416 77.3011 21.9005 77.4419 21.841C77.5827 21.7814 77.6995 21.7034 77.7924 21.607C77.8882 21.5106 77.9642 21.383 78.0205 21.2243C78.0768 21.0655 78.105 20.8812 78.105 20.6714C78.105 20.4842 78.0754 20.3184 78.0163 20.1737C77.9571 20.0263 77.8614 19.8959 77.7291 19.7825C77.5968 19.6662 77.4124 19.5769 77.1759 19.5145C76.9394 19.4521 76.655 19.421 76.3228 19.421H75.1234Z" fill="#C4A068"/>
<path d="M88.7042 19.2253C88.7408 19.2537 88.7591 19.2707 88.7591 19.2763C88.7591 19.282 88.7985 19.6705 88.8774 20.4417H88.6493C88.5339 20.0079 88.3551 19.669 88.113 19.4252C87.8737 19.1785 87.571 19.0552 87.205 19.0552C86.8559 19.0552 86.587 19.1615 86.3984 19.3742C86.2097 19.584 86.1154 19.8292 86.1154 20.11C86.1154 20.2772 86.1506 20.4318 86.221 20.5735C86.2914 20.7125 86.3857 20.833 86.504 20.935C86.6222 21.0343 86.7573 21.1293 86.9094 21.22C87.0642 21.3107 87.2261 21.3972 87.395 21.4794C87.564 21.5588 87.7329 21.6411 87.9018 21.7261C88.0707 21.8083 88.2312 21.9019 88.3833 22.0068C88.5381 22.1117 88.6747 22.2251 88.7929 22.3471C88.9111 22.469 89.0055 22.6164 89.0759 22.7894C89.1462 22.9623 89.1814 23.1523 89.1814 23.3593C89.1814 23.8441 89.0055 24.2312 88.6535 24.5204C88.3016 24.8068 87.8357 24.9499 87.2557 24.9499C86.9319 24.9499 86.6025 24.8805 86.2675 24.7415C85.9324 24.6026 85.6537 24.4339 85.4313 24.2354L85.7945 23.8356C86.2393 24.2269 86.7573 24.4226 87.3486 24.4226C87.709 24.4226 88.0102 24.3318 88.2523 24.1504C88.4945 23.9661 88.6155 23.708 88.6155 23.3763C88.6155 23.1863 88.5592 23.0148 88.4466 22.8617C88.3368 22.7057 88.1932 22.5725 88.0158 22.4619C87.8385 22.3513 87.6428 22.245 87.4288 22.1429C87.2149 22.038 87.0009 21.9288 86.7869 21.8154C86.5729 21.6992 86.3773 21.5744 86.1999 21.4412C86.0225 21.3051 85.8775 21.1364 85.7649 20.935C85.6551 20.7309 85.6002 20.5041 85.6002 20.2546C85.6002 19.8378 85.7565 19.4947 86.069 19.2253C86.3815 18.9531 86.7855 18.817 87.281 18.817C87.4725 18.817 87.6541 18.8326 87.8258 18.8638C88.0004 18.895 88.1411 18.9333 88.2481 18.9786C88.3579 19.0212 88.4522 19.0665 88.5311 19.1147C88.6127 19.1601 88.6704 19.197 88.7042 19.2253Z" fill="#C4A068"/>
</svg>
