<svg width="44" height="42" viewBox="0 0 44 42" fill="none" xmlns="http://www.w3.org/2000/svg">
<path d="M32.7219 6.78076L29.2916 12.7639L31.5253 13.083L32.7219 6.78076Z" fill="url(#paint0_linear_109_202)"/>
<path d="M14.9321 12.7639L11.5018 6.78076L12.6985 13.083L14.9321 12.7639Z" fill="url(#paint1_linear_109_202)"/>
<path d="M7.6727 15.0774L8.47045 15.5561C9.18842 16.0347 9.98617 16.1943 10.8637 16.1145L17.6445 15.237C18.7614 15.0774 19.7985 14.4392 20.3569 13.4022L21.9524 10.5303L23.5479 13.4022C24.1063 14.4392 25.0636 15.0774 26.2602 15.237L33.0411 16.1145C33.8388 16.1943 34.7163 16.0347 35.4343 15.5561L36.2321 15.0774L36.5512 16.5931L43.2522 5.26513C43.2522 5.26513 39.5028 7.09995 37.5084 7.73815L38.2264 8.45612C39.0242 9.25387 38.8646 11.0089 37.9871 12.2055C36.6309 13.8808 34.9557 14.8381 33.3602 14.5988L28.5737 13.9606C26.6591 13.7213 24.6647 9.33364 24.0265 7.41905C23.149 5.58423 21.7928 0 21.7928 0C21.7928 0 20.4367 5.58423 19.7985 7.41905C19.1603 9.33364 17.1659 13.7213 15.2513 13.9606L10.4648 14.5988C8.86932 14.7583 7.11428 13.8808 5.83789 12.2055C4.88059 11.0089 4.80081 9.33364 5.59856 8.45612L6.31653 7.73815C4.32217 7.09995 0.572754 5.26513 0.572754 5.26513L7.27383 16.5931L7.6727 15.0774Z" fill="url(#paint2_linear_109_202)"/>
<path d="M15.3649 29.4449C15.3649 26.3336 15.3649 23.2224 15.3649 20.1112C15.3649 18.5157 14.4873 17.6382 12.8121 17.4786C12.7323 17.4786 12.7323 17.4786 12.6525 17.3989C12.5728 17.3191 12.5728 17.3191 12.5728 17.2393C12.5728 17.1596 12.5728 17.1595 12.6525 17.0798C12.7323 17 12.7323 17 12.8121 17H19.9918C20.3907 17 20.7098 17 20.7896 17.0798C20.9491 17.1595 20.9491 17.2393 20.8693 17.3191C20.7895 17.3989 20.7098 17.4786 20.5502 17.4786C20.4705 17.4786 20.3907 17.4786 20.3109 17.4786C20.2311 17.4786 20.0716 17.4786 19.9918 17.5584C18.7154 17.9573 18.0772 18.755 18.0772 20.1112C18.0772 21.7067 18.0772 23.3022 18.0772 24.8179C18.0772 26.3336 18.0772 27.8494 18.0772 29.2853H18.157L19.6727 27.1314L24.6187 20.1112C25.0974 19.473 25.1772 18.9146 24.8581 18.4359C24.6187 17.9573 24.2199 17.718 23.6614 17.5584C23.5019 17.4786 23.3423 17.4786 23.1828 17.4786C23.103 17.4786 23.103 17.3989 23.103 17.3191C23.103 17.2393 23.1828 17.1595 23.3423 17.0798C23.5019 17 23.7412 17 24.2199 17H31.8782C31.958 17 31.958 17 31.958 17.0798C31.958 17.1595 31.958 17.1596 31.8782 17.2393C31.7985 17.3191 31.7985 17.3191 31.7187 17.3989C31.6389 17.4786 31.5591 17.4786 31.4794 17.4786C29.9636 17.4786 28.3681 18.3562 26.7727 20.1112L20.7896 28.5673L23.4221 31.6785L28.1288 37.183C28.2884 37.3426 28.4479 37.5021 28.6872 37.7414C29.3254 38.5392 30.1232 39.1774 31.0805 39.7358C32.0378 40.2942 33.4737 40.6133 35.3883 40.5335C35.6276 40.5335 35.867 40.5335 35.9467 40.6133C36.0265 40.6931 35.9467 40.7729 35.7074 40.8526C35.4681 40.9324 34.9097 41.0122 34.1917 41.092C31.0007 41.8897 28.2884 41.1717 26.0547 38.938L19.1143 30.9606L18.0772 29.6842H18.2368C18.2368 31.0404 18.2368 32.4763 18.2368 33.7527C18.2368 35.0291 18.2368 36.465 18.2368 37.901C18.2368 38.5392 18.4761 39.0976 18.9547 39.5762C19.4334 40.0549 19.912 40.374 20.4705 40.5335C21.0289 40.6931 21.348 40.8526 21.5873 40.8526C21.6671 40.8526 21.6671 40.8526 21.6671 40.9324C21.6671 41.0122 21.5873 41.0122 21.5075 41.092C21.4277 41.1717 21.348 41.1717 21.1884 41.2515C21.0289 41.3313 20.9491 41.3313 20.8693 41.3313H16.8008H16.8806H12.8121C12.7323 41.3313 12.6525 41.3313 12.6525 41.2515C12.6525 41.1717 12.6525 41.092 12.6525 41.0122C12.6525 40.9324 12.7323 40.9324 12.8919 40.9324C13.6896 40.9324 14.3278 40.7729 14.8064 40.5335C15.2851 40.2144 15.5244 39.5762 15.5244 38.6189C15.4446 35.5077 15.4446 32.5561 15.3649 29.4449Z" fill="url(#paint3_linear_109_202)"/>
<path d="M35.9467 36.3055C35.7872 36.3853 35.3883 36.3853 34.9097 36.4651C32.7558 37.0235 31.0007 36.5449 29.485 35.0291L24.8581 29.6842L23.9008 28.6472L28.4479 22.4247C28.767 21.9461 29.6445 20.3506 30.0434 20.3506H33.3939C33.3939 20.3506 33.4737 20.3506 33.4737 20.4304V20.5101C33.4737 20.5899 33.394 20.5899 33.3142 20.5899C33.2344 20.5899 33.2344 20.6697 33.1546 20.6697C32.1176 20.6697 31.0805 21.2281 30.0434 22.4247L26.0547 28.0887L27.8097 30.1629L30.9209 33.8325C31.0805 33.9921 31.1603 34.0718 31.24 34.1516C31.6389 34.6303 32.1973 35.1089 32.8355 35.5078C33.4737 35.9067 34.431 36.0662 35.7074 36.0662C35.867 36.0662 36.0265 36.0662 36.1063 36.146C36.1861 36.146 36.1063 36.2258 35.9467 36.3055Z" fill="url(#paint4_linear_109_202)"/>
<defs>
<linearGradient id="paint0_linear_109_202" x1="34.7892" y1="7.94866" x2="24.7256" y2="15.529" gradientUnits="userSpaceOnUse">
<stop stop-color="#91683A"/>
<stop offset="0.036272" stop-color="#946B3C"/>
<stop offset="0.0747148" stop-color="#9C7544"/>
<stop offset="0.1142" stop-color="#AB8652"/>
<stop offset="0.1543" stop-color="#C1A268"/>
<stop offset="0.1947" stop-color="#E1CB87"/>
<stop offset="0.213" stop-color="#F7E59C"/>
<stop offset="0.2495" stop-color="#EAD48B"/>
<stop offset="0.3615" stop-color="#CBAA61"/>
<stop offset="0.4476" stop-color="#BB9349"/>
<stop offset="0.497" stop-color="#B58B42"/>
<stop offset="0.6886" stop-color="#E0C06C"/>
<stop offset="0.7134" stop-color="#C8A55D"/>
<stop offset="0.7713" stop-color="#A07943"/>
<stop offset="0.8007" stop-color="#936A3B"/>
</linearGradient>
<linearGradient id="paint1_linear_109_202" x1="13.9091" y1="9.25513" x2="9.36778" y2="12.6759" gradientUnits="userSpaceOnUse">
<stop stop-color="#91683A"/>
<stop offset="0.036272" stop-color="#946B3C"/>
<stop offset="0.0747148" stop-color="#9C7544"/>
<stop offset="0.1142" stop-color="#AB8652"/>
<stop offset="0.1543" stop-color="#C1A268"/>
<stop offset="0.1947" stop-color="#E1CB87"/>
<stop offset="0.213" stop-color="#F7E59C"/>
<stop offset="0.2495" stop-color="#EAD48B"/>
<stop offset="0.3615" stop-color="#CBAA61"/>
<stop offset="0.4476" stop-color="#BB9349"/>
<stop offset="0.497" stop-color="#B58B42"/>
<stop offset="0.6886" stop-color="#E0C06C"/>
<stop offset="0.7134" stop-color="#C8A55D"/>
<stop offset="0.7713" stop-color="#A07943"/>
<stop offset="0.8007" stop-color="#936A3B"/>
</linearGradient>
<linearGradient id="paint2_linear_109_202" x1="40.9706" y1="-6.0833" x2="-15.0377" y2="36.1048" gradientUnits="userSpaceOnUse">
<stop stop-color="#91683A"/>
<stop offset="0.036272" stop-color="#946B3C"/>
<stop offset="0.0747148" stop-color="#9C7544"/>
<stop offset="0.1142" stop-color="#AB8652"/>
<stop offset="0.1543" stop-color="#C1A268"/>
<stop offset="0.1947" stop-color="#E1CB87"/>
<stop offset="0.213" stop-color="#F7E59C"/>
<stop offset="0.2495" stop-color="#EAD48B"/>
<stop offset="0.3615" stop-color="#CBAA61"/>
<stop offset="0.4476" stop-color="#BB9349"/>
<stop offset="0.497" stop-color="#B58B42"/>
<stop offset="0.6886" stop-color="#E0C06C"/>
<stop offset="0.7134" stop-color="#C8A55D"/>
<stop offset="0.7713" stop-color="#A07943"/>
<stop offset="0.8007" stop-color="#936A3B"/>
</linearGradient>
<linearGradient id="paint3_linear_109_202" x1="5.57275" y1="8.5" x2="35.0728" y2="42.5" gradientUnits="userSpaceOnUse">
<stop stop-color="#936A3B"/>
<stop offset="0.166667" stop-color="#A07943"/>
<stop offset="0.359375" stop-color="#AB8652"/>
<stop offset="0.578125" stop-color="#E0C06C"/>
<stop offset="0.75" stop-color="#F8EAA1"/>
<stop offset="1" stop-color="#C1A268"/>
</linearGradient>
<linearGradient id="paint4_linear_109_202" x1="30.0192" y1="20.3506" x2="30.0192" y2="36.6906" gradientUnits="userSpaceOnUse">
<stop stop-color="#936A3B"/>
<stop offset="0.166667" stop-color="#A07943"/>
<stop offset="0.359375" stop-color="#AB8652"/>
<stop offset="0.578125" stop-color="#E0C06C"/>
<stop offset="0.75" stop-color="#F8EAA1"/>
<stop offset="1" stop-color="#C1A268"/>
</linearGradient>
</defs>
</svg>
