<svg width="72" height="20" viewBox="0 0 72 20" fill="none" xmlns="http://www.w3.org/2000/svg">
<path d="M9.87836 5.44614C10.3216 5.147 10.6712 4.86396 10.9271 4.59703C11.183 4.3255 11.5829 3.8929 12.1267 3.29922C12.6751 2.70553 13.0018 2.31205 13.1069 2.11875C13.2166 1.92086 13.2714 1.77819 13.2714 1.69075C13.2714 1.5849 13.2098 1.49055 13.0864 1.40771C12.9676 1.32027 12.8259 1.26275 12.6614 1.23513C12.4786 1.20752 12.3872 1.15459 12.3872 1.07636C12.3872 0.993518 12.4626 0.952098 12.6134 0.952098C12.6454 0.952098 12.6957 0.949797 12.7642 0.945195C12.9333 0.93599 13.4405 0.931388 14.2859 0.931388C14.8663 0.931388 15.2707 0.938291 15.4992 0.952098C15.7277 0.961302 15.842 1.00272 15.842 1.07636C15.842 1.15459 15.778 1.20292 15.65 1.22133C15.225 1.28115 14.8549 1.39851 14.5396 1.57339C14.2288 1.74367 13.7444 2.14867 13.0864 2.78837C12.4283 3.42347 11.8617 4.04017 11.3864 4.63845C11.9165 4.63845 12.3621 4.71439 12.7231 4.86626C13.0841 5.01353 13.3834 5.27125 13.621 5.63943C13.8632 6.003 14.0712 6.622 14.2448 7.49641C14.5464 8.96451 15.0857 9.73078 15.8625 9.79521C16.0362 9.80901 16.123 9.85734 16.123 9.94018C16.123 10.0092 16.0819 10.0437 15.9996 10.0437L15.369 10.0299C14.4367 10.0299 13.9021 10.0391 13.765 10.0575C13.5411 9.75839 13.3948 9.46385 13.3263 9.17391C13.2623 8.88397 13.1732 8.37543 13.059 7.64829C12.9584 7.01318 12.7916 6.4264 12.5586 5.88795C12.3301 5.34949 11.9713 5.08026 11.4824 5.08026C11.1579 5.08026 10.822 5.18842 10.4747 5.40472C10.1274 5.61642 9.92634 5.77519 9.87151 5.88104C9.81667 5.98229 9.78925 6.58978 9.78925 7.70351C9.78925 8.48588 9.8121 8.96911 9.8578 9.1532C9.90807 9.33729 10.0132 9.48226 10.1731 9.58811C10.3376 9.69396 10.557 9.76069 10.8312 9.7883C10.9957 9.80671 11.0779 9.85734 11.0779 9.94018C11.0779 10.0184 11.0208 10.0575 10.9066 10.0575L10.8243 10.0506C10.6964 10.0414 10.2302 10.0368 9.42595 10.0368C8.45715 10.0368 7.90877 10.046 7.78082 10.0644C7.71684 10.0736 7.66886 10.0782 7.63687 10.0782C7.53176 10.0782 7.47921 10.0368 7.47921 9.95398C7.47921 9.88035 7.54319 9.83433 7.67114 9.81592C7.91334 9.7837 8.09385 9.71697 8.21267 9.61572C8.33605 9.50987 8.41374 9.39022 8.44573 9.25675C8.48228 9.11869 8.52798 8.66307 8.58282 7.8899C8.64223 7.11673 8.67193 6.47243 8.67193 5.95698C8.67193 5.27586 8.66508 4.69828 8.65137 4.22426C8.63766 3.75023 8.61024 3.23478 8.56911 2.67792C8.52798 2.11645 8.48228 1.78049 8.43202 1.67004C8.38175 1.55499 8.31092 1.46754 8.21952 1.40771C8.12812 1.34328 7.91334 1.29036 7.57518 1.24894C7.46093 1.23513 7.40381 1.19371 7.40381 1.12468C7.40381 1.02343 7.50891 0.972808 7.71913 0.972808L8.27436 0.965904L10.7078 0.938291C10.8312 0.938291 10.8929 0.97741 10.8929 1.05565C10.8929 1.10167 10.8723 1.13619 10.8312 1.1592C10.79 1.17761 10.6644 1.20062 10.4542 1.22823C10.2394 1.25584 10.1046 1.28346 10.0497 1.31107C9.99489 1.33408 9.94005 1.39391 9.88522 1.49055C9.83038 1.5826 9.80296 1.73677 9.80296 1.95307C9.80296 2.47312 9.82809 3.63748 9.87836 5.44614Z" fill="#800020"/>
<path d="M18.0149 0.731193C18.1886 0.731193 18.3439 0.795623 18.481 0.924485C18.6181 1.05335 18.6867 1.19371 18.6867 1.34559C18.6867 1.52507 18.6296 1.67924 18.5153 1.80811C18.4056 1.93697 18.2525 2.0014 18.056 2.0014C17.8824 2.0014 17.727 1.94617 17.5899 1.83572C17.4528 1.72066 17.3843 1.56649 17.3843 1.3732C17.3843 1.18451 17.4414 1.03034 17.5556 0.910678C17.6745 0.791021 17.8275 0.731193 18.0149 0.731193ZM18.7758 4.1069L18.7689 5.66014L18.7826 7.10983V8.20055L18.7758 9.02894C18.7758 9.3603 18.8283 9.572 18.9334 9.66405C19.0431 9.75149 19.2053 9.79981 19.4201 9.80901C19.6715 9.82282 19.7971 9.87575 19.7971 9.96779C19.7971 10.0414 19.7492 10.0782 19.6532 10.0782C19.6166 10.0782 19.5755 10.0759 19.5298 10.0713C19.1048 10.0161 18.7095 9.9885 18.3439 9.9885C17.759 9.9885 17.3546 10.0069 17.1307 10.0437C17.085 10.0529 17.0393 10.0575 16.9936 10.0575C16.8839 10.0575 16.829 10.0161 16.829 9.93327C16.829 9.85043 16.957 9.79291 17.2129 9.76069C17.4688 9.72848 17.631 9.67325 17.6996 9.59501C17.7727 9.51217 17.8093 9.28206 17.8093 8.90468L17.8504 6.04672C17.8504 5.28276 17.7933 4.83175 17.679 4.69368C17.5648 4.55101 17.3431 4.47508 17.0141 4.46587C16.9044 4.46587 16.8496 4.42905 16.8496 4.35542C16.8496 4.314 16.8679 4.28178 16.9044 4.25877C16.941 4.23576 17.2129 4.20585 17.7202 4.16903C18.2274 4.13221 18.5793 4.1115 18.7758 4.1069Z" fill="#800020"/>
<path d="M22.4362 5.67395C22.7241 5.1585 23.0303 4.77192 23.3547 4.51419C23.6838 4.25647 24.0288 4.12761 24.3898 4.12761C24.6411 4.12761 24.8582 4.21965 25.041 4.40374C25.2238 4.58323 25.3152 4.78802 25.3152 5.01813C25.3152 5.45534 25.1301 5.67395 24.76 5.67395C24.5863 5.67395 24.4401 5.55199 24.3213 5.30807C24.175 4.99972 23.9808 4.84555 23.7386 4.84555C23.5101 4.84555 23.2748 4.97441 23.0326 5.23214C22.7904 5.48986 22.6281 5.77289 22.5459 6.08124C22.4636 6.38498 22.4225 7.02469 22.4225 8.00035C22.4225 8.89318 22.4591 9.40632 22.5322 9.53979C22.6053 9.66865 22.7927 9.75149 23.0943 9.7883C23.1765 9.79751 23.2176 9.82972 23.2176 9.88495C23.2176 9.9816 23.1103 10.0299 22.8955 10.0299H20.7088C20.5534 10.0299 20.4758 9.9908 20.4758 9.91256C20.4758 9.83893 20.5786 9.79751 20.7842 9.7883C21.0721 9.7699 21.2503 9.68015 21.3189 9.51908C21.3874 9.358 21.4217 8.76432 21.4217 7.73803C21.4217 6.23311 21.3897 5.32878 21.3257 5.02504C21.2663 4.72129 21.0378 4.56022 20.6403 4.54181C20.4758 4.5326 20.3935 4.48888 20.3935 4.41064C20.3935 4.36922 20.4095 4.33931 20.4415 4.3209C20.478 4.29789 20.6883 4.27488 21.0721 4.25187L22.3334 4.18284C22.3654 4.43135 22.3996 4.92839 22.4362 5.67395Z" fill="#800020"/>
<path d="M28.4752 4.742C28.4112 5.75909 28.3792 6.75776 28.3792 7.73803C28.3792 8.49279 28.4684 8.98522 28.6466 9.21533C28.8248 9.44544 29.0807 9.5605 29.4143 9.5605C29.6565 9.5605 29.9238 9.47075 30.2163 9.29127C30.3214 9.22684 30.3854 9.19462 30.4082 9.19462C30.4676 9.19462 30.4974 9.22684 30.4974 9.29127C30.4974 9.40172 30.3351 9.5766 30.0107 9.81592C29.6862 10.0552 29.2886 10.1749 28.8179 10.1749C28.3518 10.1749 28.0022 10.0115 27.7692 9.68476C27.5361 9.358 27.4196 8.87017 27.4196 8.22126C27.4196 7.54474 27.4607 6.38498 27.543 4.742C27.511 4.7328 27.2939 4.71669 26.8918 4.69368L26.4805 4.66607C26.38 4.66146 26.3297 4.62695 26.3297 4.56252C26.3297 4.50269 26.3868 4.45437 26.5011 4.41755C26.6884 4.34851 27.0037 4.14602 27.447 3.81006C27.8903 3.4741 28.1485 3.00007 28.2216 2.38798C28.2399 2.2269 28.2901 2.14637 28.3724 2.14637C28.4546 2.14637 28.4958 2.2108 28.4958 2.33966C28.4958 2.38108 28.4935 2.4248 28.4889 2.47082C28.4752 2.65031 28.4684 2.85741 28.4684 3.09212L28.4752 4.16903L29.9764 4.14832C30.2323 4.14832 30.3648 4.17823 30.374 4.23806C30.3694 4.44976 30.3351 4.58323 30.2711 4.63845C30.0335 4.63845 29.4349 4.67297 28.4752 4.742Z" fill="#800020"/>
<path d="M32.3139 0.731193C32.4875 0.731193 32.6429 0.795623 32.78 0.924485C32.9171 1.05335 32.9856 1.19371 32.9856 1.34559C32.9856 1.52507 32.9285 1.67924 32.8142 1.80811C32.7046 1.93697 32.5515 2.0014 32.355 2.0014C32.1813 2.0014 32.026 1.94617 31.8889 1.83572C31.7518 1.72066 31.6832 1.56649 31.6832 1.3732C31.6832 1.18451 31.7403 1.03034 31.8546 0.910678C31.9734 0.791021 32.1265 0.731193 32.3139 0.731193ZM33.0747 4.1069L33.0679 5.66014L33.0816 7.10983V8.20055L33.0747 9.02894C33.0747 9.3603 33.1273 9.572 33.2324 9.66405C33.3421 9.75149 33.5043 9.79981 33.7191 9.80901C33.9704 9.82282 34.0961 9.87575 34.0961 9.96779C34.0961 10.0414 34.0481 10.0782 33.9521 10.0782C33.9156 10.0782 33.8744 10.0759 33.8287 10.0713C33.4038 10.0161 33.0085 9.9885 32.6429 9.9885C32.0579 9.9885 31.6535 10.0069 31.4296 10.0437C31.3839 10.0529 31.3382 10.0575 31.2925 10.0575C31.1828 10.0575 31.128 10.0161 31.128 9.93327C31.128 9.85043 31.2559 9.79291 31.5119 9.76069C31.7678 9.72848 31.93 9.67325 31.9985 9.59501C32.0717 9.51217 32.1082 9.28206 32.1082 8.90468L32.1493 6.04672C32.1493 5.28276 32.0922 4.83175 31.978 4.69368C31.8637 4.55101 31.6421 4.47508 31.3131 4.46587C31.2034 4.46587 31.1486 4.42905 31.1486 4.35542C31.1486 4.314 31.1668 4.28178 31.2034 4.25877C31.2399 4.23576 31.5118 4.20585 32.0191 4.16903C32.5263 4.13221 32.8782 4.1115 33.0747 4.1069Z" fill="#800020"/>
<path d="M40.8617 5.44614C41.305 5.147 41.6545 4.86396 41.9105 4.59703C42.1664 4.3255 42.5662 3.8929 43.11 3.29922C43.6584 2.70553 43.9851 2.31205 44.0903 2.11875C44.1999 1.92086 44.2548 1.77819 44.2548 1.69075C44.2548 1.5849 44.1931 1.49055 44.0697 1.40771C43.9509 1.32027 43.8092 1.26275 43.6447 1.23513C43.4619 1.20752 43.3705 1.15459 43.3705 1.07636C43.3705 0.993518 43.4459 0.952098 43.5967 0.952098C43.6287 0.952098 43.679 0.949797 43.7475 0.945195C43.9166 0.93599 44.4239 0.931388 45.2693 0.931388C45.8496 0.931388 46.2541 0.938291 46.4826 0.952098C46.711 0.961302 46.8253 1.00272 46.8253 1.07636C46.8253 1.15459 46.7613 1.20292 46.6334 1.22133C46.2084 1.28115 45.8382 1.39851 45.5229 1.57339C45.2121 1.74367 44.7277 2.14867 44.0697 2.78837C43.4116 3.42347 42.845 4.04017 42.3697 4.63845C42.8998 4.63845 43.3454 4.71439 43.7064 4.86626C44.0674 5.01353 44.3667 5.27125 44.6044 5.63943C44.8466 6.003 45.0545 6.622 45.2281 7.49641C45.5297 8.96451 46.069 9.73078 46.8459 9.79521C47.0195 9.80901 47.1063 9.85734 47.1063 9.94018C47.1063 10.0092 47.0652 10.0437 46.9829 10.0437L46.3523 10.0299C45.4201 10.0299 44.8854 10.0391 44.7483 10.0575C44.5244 9.75839 44.3782 9.46385 44.3096 9.17391C44.2456 8.88397 44.1565 8.37543 44.0423 7.64829C43.9417 7.01318 43.7749 6.4264 43.5419 5.88795C43.3134 5.34949 42.9547 5.08026 42.4657 5.08026C42.1412 5.08026 41.8054 5.18842 41.458 5.40472C41.1107 5.61642 40.9097 5.77519 40.8548 5.88104C40.8 5.98229 40.7726 6.58978 40.7726 7.70351C40.7726 8.48588 40.7954 8.96911 40.8411 9.1532C40.8914 9.33729 40.9965 9.48226 41.1564 9.58811C41.3209 9.69396 41.5403 9.76069 41.8145 9.7883C41.979 9.80671 42.0613 9.85734 42.0613 9.94018C42.0613 10.0184 42.0041 10.0575 41.8899 10.0575L41.8076 10.0506C41.6797 10.0414 41.2136 10.0368 40.4093 10.0368C39.4405 10.0368 38.8921 10.046 38.7641 10.0644C38.7002 10.0736 38.6522 10.0782 38.6202 10.0782C38.5151 10.0782 38.4625 10.0368 38.4625 9.95398C38.4625 9.88035 38.5265 9.83433 38.6545 9.81592C38.8967 9.7837 39.0772 9.71697 39.196 9.61572C39.3194 9.50987 39.3971 9.39022 39.4291 9.25675C39.4656 9.11869 39.5113 8.66307 39.5661 7.8899C39.6255 7.11673 39.6553 6.47243 39.6553 5.95698C39.6553 5.27586 39.6484 4.69828 39.6347 4.22426C39.621 3.75023 39.5936 3.23478 39.5524 2.67792C39.5113 2.11645 39.4656 1.78049 39.4153 1.67004C39.3651 1.55499 39.2942 1.46754 39.2028 1.40771C39.1114 1.34328 38.8967 1.29036 38.5585 1.24894C38.4443 1.23513 38.3871 1.19371 38.3871 1.12468C38.3871 1.02343 38.4922 0.972808 38.7024 0.972808L39.2577 0.965904L41.6911 0.938291C41.8145 0.938291 41.8762 0.97741 41.8762 1.05565C41.8762 1.10167 41.8556 1.13619 41.8145 1.1592C41.7734 1.17761 41.6477 1.20062 41.4375 1.22823C41.2227 1.25584 41.0879 1.28346 41.0331 1.31107C40.9782 1.33408 40.9234 1.39391 40.8685 1.49055C40.8137 1.5826 40.7863 1.73677 40.7863 1.95307C40.7863 2.47312 40.8114 3.63748 40.8617 5.44614Z" fill="#800020"/>
<path d="M49.3478 4.23806C49.3707 4.5372 49.3912 5.40242 49.4095 6.8337C49.4187 7.72652 49.4415 8.32251 49.4781 8.62165C49.5146 8.91619 49.6289 9.16011 49.8208 9.3534C50.0173 9.54669 50.2412 9.64334 50.4926 9.64334C50.8216 9.64334 51.1506 9.48916 51.4796 9.18082C51.8132 8.87247 52.0189 8.54341 52.0966 8.19365C52.1743 7.83928 52.2131 7.02929 52.2131 5.76369C52.2131 5.17461 52.1765 4.81794 52.1034 4.69368C52.0303 4.56942 51.8521 4.49809 51.5688 4.47968C51.4636 4.47508 51.4111 4.43596 51.4111 4.36232C51.4111 4.3117 51.4271 4.27948 51.4591 4.26568C51.4911 4.24727 51.5939 4.23806 51.7675 4.23806H53.1385C53.1796 4.7397 53.2002 5.30117 53.2002 5.92246L53.1453 8.5181C53.1453 9.05195 53.1888 9.38791 53.2756 9.52598C53.367 9.66405 53.5086 9.74228 53.7006 9.76069C53.8194 9.7791 53.8788 9.82512 53.8788 9.89876C53.8788 9.9816 53.7623 10.023 53.5292 10.023H52.4462C52.2588 10.023 52.1651 9.96089 52.1651 9.83663C52.1651 9.79981 52.1674 9.75839 52.172 9.71237C52.1857 9.5743 52.1925 9.43394 52.1925 9.29127C52.1925 9.17161 52.1857 8.99673 52.172 8.76662C51.8247 9.21763 51.4636 9.55589 51.0889 9.7814C50.7142 10.0069 50.3235 10.1197 49.9168 10.1197C49.5695 10.1197 49.277 10.0345 49.0394 9.86424C48.8063 9.69396 48.6509 9.48916 48.5732 9.24985C48.5001 9.00593 48.4499 8.40305 48.4224 7.44119C48.395 6.47933 48.3813 5.72457 48.3813 5.17691C48.3813 4.87777 48.3653 4.69138 48.3333 4.61774C48.3013 4.54411 48.2008 4.50269 48.0317 4.49348C47.8489 4.47968 47.7575 4.43366 47.7575 4.35542C47.7575 4.27718 47.8672 4.23806 48.0866 4.23806H49.3478Z" fill="#800020"/>
<path d="M56.5796 4.12761C56.6892 4.39914 56.7555 4.85706 56.7783 5.50136C57.0617 5.05035 57.3747 4.71209 57.7174 4.48658C58.0647 4.26107 58.4418 4.14832 58.8485 4.14832C59.1592 4.14832 59.4585 4.20815 59.7464 4.32781C60.0389 4.44286 60.2628 4.64536 60.4182 4.93529C60.5781 5.22063 60.6581 5.70846 60.6581 6.39879L60.617 8.7252C60.617 9.1532 60.6513 9.42243 60.7198 9.53288C60.7929 9.63873 60.946 9.72387 61.1791 9.7883C61.339 9.83433 61.419 9.88495 61.419 9.94018C61.419 10.0092 61.3801 10.0437 61.3025 10.0437C61.2705 10.0437 61.2385 10.0414 61.2065 10.0368C60.9963 9.9908 60.6855 9.96779 60.2742 9.96779C59.9041 9.96779 59.5065 9.9839 59.0815 10.0161C58.9124 10.0161 58.8279 9.97699 58.8279 9.89876C58.8279 9.84353 58.8736 9.80671 58.965 9.7883C59.2163 9.73308 59.3808 9.67555 59.4585 9.61572C59.5362 9.55589 59.5911 9.47766 59.623 9.38101C59.655 9.27976 59.6802 8.9461 59.6984 8.38003C59.7213 7.81396 59.7327 7.35375 59.7327 6.99938C59.7327 6.02831 59.6116 5.38171 59.3694 5.05955C59.1272 4.7374 58.8256 4.57632 58.4646 4.57632C57.9299 4.57632 57.4844 4.86856 57.1279 5.45304C56.7761 6.03292 56.6001 7.00168 56.6001 8.35932C56.6001 8.97602 56.639 9.3695 56.7166 9.53979C56.7989 9.70547 57 9.80671 57.3199 9.84353C57.4204 9.85273 57.4707 9.89646 57.4707 9.97469C57.4707 10.0391 57.4204 10.0713 57.3199 10.0713L56.9634 10.0437C56.8355 10.0345 56.4128 10.0299 55.6953 10.0299L55.1469 10.0437C54.9458 10.0437 54.8453 10.0069 54.8453 9.93327C54.8453 9.85504 54.955 9.79521 55.1743 9.75379C55.3845 9.71237 55.5262 9.64103 55.5993 9.53979C55.6724 9.43394 55.7204 9.08877 55.7433 8.50429C55.7707 7.91982 55.7844 7.19037 55.7844 6.31595C55.7844 5.50136 55.7296 4.99512 55.6199 4.79723C55.5102 4.59933 55.3571 4.47738 55.1606 4.43135C54.9824 4.38993 54.8933 4.33241 54.8933 4.25877C54.8933 4.18053 54.9618 4.14142 55.0989 4.14142L55.6542 4.14832C55.7136 4.14832 56.022 4.14142 56.5796 4.12761Z" fill="#800020"/>
<path d="M63.7564 0.406738C63.9027 0.406738 64.0375 0.464266 64.1609 0.57932C64.2843 0.689773 64.3459 0.83014 64.3459 1.00042C64.3459 1.1661 64.2843 1.30417 64.1609 1.41462C64.0375 1.52047 63.9027 1.57339 63.7564 1.57339C63.6102 1.57339 63.4777 1.52047 63.3589 1.41462C63.2401 1.30417 63.1806 1.1638 63.1806 0.993518C63.1806 0.841645 63.2309 0.705881 63.3314 0.586224C63.432 0.466567 63.5737 0.406738 63.7564 0.406738ZM64.4213 4.1069C64.3939 6.07664 64.3802 7.22949 64.3802 7.56545C64.3802 9.48916 64.3551 10.7663 64.3048 11.3968C64.2591 12.0319 64.0283 12.5749 63.6125 13.0259C63.1966 13.4816 62.6917 13.7094 62.0976 13.7094C61.7594 13.7094 61.4624 13.615 61.2065 13.4263C60.946 13.2376 60.8158 12.9684 60.8158 12.6187C60.8158 12.4162 60.8752 12.2528 60.994 12.1285C61.1128 12.0089 61.2408 11.949 61.3779 11.949C61.5195 11.949 61.6406 11.9951 61.7412 12.0871C61.8371 12.1791 61.8851 12.3057 61.8851 12.4668C61.8851 12.545 61.8554 12.6624 61.796 12.8188C61.7594 12.9201 61.7412 13.0075 61.7412 13.0812C61.7412 13.2008 61.7823 13.2906 61.8645 13.3504C61.9468 13.4148 62.0679 13.447 62.2278 13.447C62.502 13.447 62.7488 13.3504 62.9681 13.1571C63.1875 12.9638 63.3223 12.7268 63.3726 12.4461C63.4228 12.1653 63.4503 11.3484 63.4548 9.9954L63.4685 5.73608C63.4685 5.17461 63.432 4.81794 63.3589 4.66607C63.2903 4.51419 63.1098 4.43826 62.8173 4.43826C62.7671 4.43826 62.7145 4.44056 62.6597 4.44516C62.4632 4.44516 62.3649 4.39914 62.3649 4.3071C62.3649 4.21965 62.4975 4.17363 62.7625 4.16903C63.3566 4.15983 63.9095 4.13912 64.4213 4.1069Z" fill="#800020"/>
<path d="M0.987079 12.7785V17.1276C0.987079 17.7788 0.910535 18.254 0.757446 18.5531C0.606642 18.8545 0.35416 19.0053 0 19.0053V18.8465C0.219351 18.8465 0.365585 18.7487 0.438702 18.5531C0.511819 18.3598 0.548377 17.9928 0.548377 17.452V12.7785H0.987079Z" fill="#C4A068"/>
<path d="M6.67924 12.7785H9.7433L9.90781 13.6483H9.7433C9.70217 13.5218 9.6599 13.4194 9.61648 13.3411C9.57535 13.2629 9.51709 13.1927 9.44169 13.1306C9.36857 13.0661 9.27603 13.0201 9.16407 12.9925C9.05211 12.9649 8.91387 12.9511 8.74936 12.9511H7.09737V14.9807H9.42798V15.3396H7.09737V17.1966H9.95579V17.6108H6.67924V12.7785Z" fill="#C4A068"/>
<path d="M19.7745 17.6108H19.5551L18.2116 13.6759L16.7721 17.6108H16.5528L14.9076 12.7785H15.3806L16.8133 16.9067L18.3213 12.7785H18.3693L19.8088 16.9274C19.8088 16.9274 20.2086 15.839 21.0083 13.6621C21.054 13.5379 21.0826 13.4309 21.094 13.3411C21.1054 13.2491 21.1043 13.1789 21.0906 13.1306C21.0792 13.0823 21.054 13.0443 21.0152 13.0167C20.9763 12.9868 20.9386 12.9683 20.9021 12.9614C20.8655 12.9545 20.821 12.9511 20.7684 12.9511V12.7785H21.5087V12.8959L19.7745 17.6108Z" fill="#C4A068"/>
<path d="M26.6388 12.7785H29.7029L29.8674 13.6483H29.7029C29.6617 13.5218 29.6195 13.4194 29.576 13.3411C29.5349 13.2629 29.4767 13.1927 29.4013 13.1306C29.3281 13.0661 29.2356 13.0201 29.1236 12.9925C29.0117 12.9649 28.8734 12.9511 28.7089 12.9511H27.0569V14.9807H29.3875V15.3396H27.0569V17.1966H29.9154V17.6108H26.6388V12.7785Z" fill="#C4A068"/>
<path d="M35.4019 17.6108V12.7785H35.82V17.4382H37.1567C37.2938 17.4382 37.4172 17.4221 37.5268 17.3899C37.6388 17.3577 37.7279 17.3197 37.7942 17.276C37.8604 17.23 37.9198 17.1736 37.9724 17.1069C38.0272 17.0378 38.0661 16.9792 38.0889 16.9308C38.1118 16.8825 38.1346 16.8261 38.1575 16.7617H38.37L38.0958 17.6108H35.4019Z" fill="#C4A068"/>
<path d="M43.3629 17.6108V12.7785H43.7811V17.4382H45.1178C45.2548 17.4382 45.3782 17.4221 45.4879 17.3899C45.5999 17.3577 45.689 17.3197 45.7552 17.276C45.8215 17.23 45.8809 17.1736 45.9335 17.1069C45.9883 17.0378 46.0271 16.9792 46.05 16.9308C46.0728 16.8825 46.0957 16.8261 46.1185 16.7617H46.331L46.0568 17.6108H43.3629Z" fill="#C4A068"/>
<path d="M51.2418 12.7785H54.3058L54.4703 13.6483H54.3058C54.2647 13.5218 54.2224 13.4194 54.179 13.3411C54.1379 13.2629 54.0796 13.1927 54.0042 13.1306C53.9311 13.0661 53.8386 13.0201 53.7266 12.9925C53.6146 12.9649 53.4764 12.9511 53.3119 12.9511H51.6599V14.9807H53.9905V15.3396H51.6599V17.1966H54.5183V17.6108H51.2418V12.7785Z" fill="#C4A068"/>
<path d="M59.998 12.7785H61.5883C61.8922 12.7785 62.1572 12.8176 62.3834 12.8959C62.6119 12.9718 62.789 13.0753 62.9147 13.2065C63.0403 13.3377 63.1329 13.4803 63.1923 13.6345C63.2517 13.7864 63.2814 13.9498 63.2814 14.1246C63.2814 14.7022 62.9752 15.1187 62.3629 15.3741C62.6667 15.8712 62.8781 16.2117 62.9969 16.3958C63.2734 16.8284 63.4962 17.1126 63.6652 17.2484C63.8252 17.3772 64.0171 17.4428 64.241 17.4451L64.2479 17.6108H63.7886C63.6401 17.6108 63.5053 17.5866 63.3842 17.5383C63.2654 17.4877 63.1626 17.4233 63.0757 17.345C62.9912 17.2668 62.8998 17.1575 62.8016 17.0171C62.7033 16.8768 62.6142 16.7375 62.5342 16.5995C62.4565 16.4614 62.3503 16.2842 62.2155 16.0679C62.0807 15.8516 61.947 15.6503 61.8145 15.4639H60.4161V17.6108H59.998V12.7785ZM60.4161 13.1996V15.2913H61.5403C61.6888 15.2913 61.8236 15.2821 61.9447 15.2637C62.0658 15.2453 62.1835 15.2119 62.2977 15.1636C62.412 15.1153 62.5068 15.052 62.5822 14.9738C62.6599 14.8955 62.7216 14.792 62.7673 14.6631C62.813 14.5342 62.8358 14.3847 62.8358 14.2144C62.8358 14.0625 62.8118 13.9279 62.7639 13.8105C62.7159 13.6909 62.6382 13.585 62.5308 13.493C62.4234 13.3987 62.2737 13.3262 62.0818 13.2755C61.8899 13.2249 61.6591 13.1996 61.3895 13.1996H60.4161Z" fill="#C4A068"/>
<path d="M71.4378 13.0408C71.4675 13.0638 71.4824 13.0776 71.4824 13.0823C71.4824 13.0869 71.5144 13.4021 71.5783 14.028H71.3933C71.2996 13.6759 71.1545 13.401 70.958 13.2031C70.7638 13.0029 70.5181 12.9028 70.2211 12.9028C69.9378 12.9028 69.7196 12.9891 69.5665 13.1616C69.4134 13.3319 69.3368 13.531 69.3368 13.7588C69.3368 13.8945 69.3654 14.0199 69.4225 14.135C69.4796 14.2478 69.5562 14.3456 69.6522 14.4284C69.7481 14.5089 69.8578 14.586 69.9812 14.6597C70.1068 14.7333 70.2382 14.8035 70.3753 14.8702C70.5124 14.9346 70.6495 15.0014 70.7866 15.0704C70.9237 15.1371 71.0539 15.2131 71.1773 15.2982C71.303 15.3833 71.4138 15.4754 71.5098 15.5743C71.6058 15.6733 71.6823 15.7929 71.7394 15.9333C71.7965 16.0737 71.8251 16.2278 71.8251 16.3958C71.8251 16.7893 71.6823 17.1034 71.3967 17.3381C71.1111 17.5705 70.7329 17.6867 70.2622 17.6867C69.9995 17.6867 69.7321 17.6304 69.4602 17.5176C69.1883 17.4049 68.9621 17.2679 68.7816 17.1069L69.0764 16.7824C69.4374 17.1 69.8578 17.2587 70.3376 17.2587C70.6301 17.2587 70.8746 17.1851 71.0711 17.0378C71.2676 16.8883 71.3658 16.6789 71.3658 16.4096C71.3658 16.2555 71.3201 16.1162 71.2287 15.992C71.1396 15.8654 71.0231 15.7573 70.8792 15.6675C70.7352 15.5778 70.5764 15.4915 70.4027 15.4087C70.2291 15.3235 70.0554 15.2349 69.8818 15.1429C69.7081 15.0485 69.5493 14.9473 69.4054 14.8391C69.2614 14.7287 69.1438 14.5918 69.0524 14.4284C68.9633 14.2627 68.9187 14.0786 68.9187 13.8761C68.9187 13.5379 69.0455 13.2594 69.2991 13.0408C69.5528 12.8199 69.8806 12.7095 70.2828 12.7095C70.4382 12.7095 70.5855 12.7221 70.7249 12.7474C70.8666 12.7728 70.9808 12.8038 71.0677 12.8406C71.1568 12.8752 71.2333 12.912 71.2973 12.9511C71.3635 12.9879 71.4104 13.0178 71.4378 13.0408Z" fill="#C4A068"/>
</svg>
