<svg width="82" height="80" viewBox="0 0 82 80" fill="none" xmlns="http://www.w3.org/2000/svg">
<path d="M40.7373 55.0006C40.1293 55.0004 39.535 55.1806 39.0294 55.5182C38.5239 55.8558 38.1298 56.3358 37.897 56.8974C37.6643 57.4591 37.6033 58.0771 37.7218 58.6734C37.8403 59.2697 38.133 59.8174 38.5628 60.2473C38.9927 60.6772 39.5404 60.97 40.1366 61.0887C40.7329 61.2073 41.3509 61.1465 41.9126 60.9139C42.4742 60.6812 42.9543 60.2873 43.2921 59.7818C43.6298 59.2763 43.8101 58.682 43.81 58.074C43.8091 57.2593 43.4851 56.4782 42.9091 55.9021C42.333 55.3259 41.552 55.0017 40.7373 55.0006ZM40.7373 59.481C40.459 59.481 40.1869 59.3985 39.9556 59.244C39.7242 59.0894 39.5438 58.8697 39.4373 58.6126C39.3308 58.3555 39.3029 58.0726 39.3571 57.7996C39.4114 57.5267 39.5454 57.276 39.7422 57.0792C39.9389 56.8824 40.1896 56.7484 40.4626 56.6941C40.7355 56.6398 41.0184 56.6677 41.2755 56.7742C41.5326 56.8806 41.7523 57.061 41.9069 57.2923C42.0615 57.5237 42.1441 57.7958 42.1441 58.074C42.1436 58.447 41.9952 58.8045 41.7315 59.0682C41.4678 59.3319 41.1102 59.4802 40.7373 59.4807V59.481Z" fill="#C4A068"/>
<path d="M67.5145 16.0464C60.0392 13.862 58.5331 10.0612 58.5874 7.37698C58.5169 3.31658 50.7269 -5.08614e-06 40.795 -5.08614e-06C32.0676 -5.08614e-06 23.0425 2.78326 23.0425 7.34564C23.0648 8.86544 22.3956 13.5048 14.1302 16.0499C7.81533 17.9942 3.21061 22.1768 1.16383 27.8268C-0.726623 33.0455 -1.24661 41.9296 7.01168 54.6173C16.3809 69.0116 29.8631 76.2156 37.0658 79.2287C38.2708 79.7359 39.5648 79.9981 40.8722 80C42.1448 79.9992 43.4049 79.7485 44.5809 79.2622C51.7374 76.3122 65.1594 69.1894 74.6445 54.6173C82.9758 41.8176 82.4028 32.8625 80.455 27.604C78.4024 22.0624 73.6857 17.8495 67.5145 16.0464ZM24.7091 7.31481C24.7156 6.02984 26.3634 4.59605 29.122 3.53324C32.2459 2.32944 36.3915 1.66662 40.795 1.66662C45.1986 1.66662 49.3538 2.3296 52.488 3.53324C55.2636 4.59988 56.9213 6.00351 56.9213 7.28931C56.9213 9.85908 50.4416 12.6105 40.7955 12.6105C31.2477 12.6105 24.8097 9.86908 24.7097 7.31681C24.7097 7.32148 24.7097 7.32515 24.7097 7.31581C24.7097 7.30648 24.7091 7.30981 24.7091 7.31481ZM24.2758 10.0042C25.1022 10.8452 26.4357 11.6979 28.54 12.4567C31.7957 13.6308 36.1481 14.2775 40.7953 14.2775C45.4426 14.2775 49.8036 13.631 53.0692 12.457C55.1295 11.7164 56.4524 10.8869 57.2858 10.0659C58.3024 13.3 61.4313 15.8584 66.3699 17.4381C65.5516 23.7114 62.611 29.5157 58.0367 33.8862C53.7149 37.996 48.2757 40.4313 42.5608 40.849C41.7461 40.9156 41.5795 40.9176 41.4156 40.9156C41.303 40.816 41.562 40.95 41.4156 40.9156C41.2693 40.8812 41.5608 40.8766 41.4156 40.9156C41.4156 40.9156 40.9128 40.9156 40.6897 40.9125C34.3862 40.8853 28.3197 38.3912 23.5968 33.8806C19.0374 29.5002 16.1061 23.6973 15.2858 17.4281C21.237 15.4291 23.4678 12.3415 24.2754 10.0042H24.2758ZM46.0472 57.9947C46.0447 57.7881 46.0302 57.5818 46.0039 57.3769C47.0832 57.5987 48.5671 57.6887 49.9548 57.0451C50.0939 56.9806 50.2381 56.9129 50.3846 56.8436C51.3796 56.3751 52.4927 55.8508 53.61 55.6138C52.7689 56.1183 51.8386 56.8561 50.7268 57.8674C49.8833 58.634 49.0238 59.0007 48.1727 58.9535C47.186 58.9004 46.4037 58.3137 46.0472 57.9947ZM48.819 62.5151C48.9495 62.5386 49.0841 62.5619 49.2218 62.5859C50.3341 62.7794 51.5804 62.9964 52.655 63.4606C51.6972 63.3854 50.5066 63.4361 48.9786 63.6312C46.1272 63.9947 45.3106 62.0926 45.0809 61.1171C45.2113 60.9315 45.3298 60.7377 45.4356 60.537C46.1857 61.337 47.3338 62.2508 48.819 62.5151ZM44.9839 54.8618C44.8542 54.6898 44.7144 54.5256 44.5651 54.3703C45.5749 53.924 46.8295 53.1418 47.589 51.8325C47.666 51.6992 47.7448 51.5622 47.8257 51.4209C48.372 50.4666 48.9833 49.3981 49.7624 48.5633C49.3625 49.4589 49.0236 50.5966 48.6925 52.0632C48.0557 54.8808 45.9715 54.9833 44.9839 54.8618ZM44.7506 66.3457L45.0206 66.6153C45.7835 67.3758 46.6849 68.2743 47.3155 69.2869C46.5534 68.6619 45.5489 68.039 44.2418 67.3518C41.7368 66.0352 42.1203 64.0294 42.4778 63.0947C42.6975 63.0173 42.9118 62.9255 43.1194 62.8199C43.2788 63.8984 43.6963 65.2874 44.7506 66.3457ZM40.7115 61.7291C39.9854 61.7292 39.2755 61.514 38.6717 61.1106C38.0679 60.7072 37.5972 60.1339 37.3193 59.463C37.0414 58.7921 36.9686 58.0539 37.1103 57.3417C37.252 56.6295 37.6016 55.9753 38.1151 55.4619C38.6286 54.9484 39.2828 54.5988 39.995 54.4571C40.7072 54.3155 41.4454 54.3883 42.1163 54.6662C42.7871 54.9442 43.3605 55.4148 43.7638 56.0187C44.1672 56.6225 44.3824 57.3324 44.3823 58.0585C44.3811 59.0318 43.994 59.965 43.3058 60.6532C42.6176 61.3415 41.6845 61.7286 40.7112 61.7298L40.7115 61.7291ZM39.2212 67.229C39.2475 67.3801 39.2757 67.5361 39.3045 67.6956C39.4995 68.7779 39.7179 69.9889 39.6577 71.1289C39.3882 70.1859 38.9162 69.0964 38.2272 67.7601C37.7051 66.7472 37.5744 65.8223 37.8391 65.0112C38.1442 64.0757 38.9079 63.4721 39.3105 63.2074C39.5169 63.2637 39.7264 63.3074 39.938 63.3384C39.4364 64.3179 38.9579 65.7202 39.2209 67.229H39.2212ZM36.1598 55.2738C36.0387 55.4714 35.9307 55.6768 35.8365 55.8886C35.0215 55.1455 33.7807 54.3041 32.2391 54.1661C32.0754 54.1515 31.9057 54.1375 31.7317 54.123C30.6443 54.033 29.4268 53.9323 28.3485 53.5808C29.3298 53.5642 30.5071 53.3892 31.9817 53.0683C34.8878 52.436 35.8775 54.4358 36.1595 55.2738H36.1598ZM36.0178 49.9251C35.158 49.2028 34.1403 48.3476 33.4025 47.3476C34.412 48.0191 35.4891 48.5827 36.6163 49.0291C39.1955 50.1094 39.0214 52.1189 38.7539 53.0943C38.5364 53.1803 38.3249 53.2805 38.1206 53.3943C37.8631 52.3334 37.3253 51.0262 36.1973 50.0761L36.0178 49.9251ZM35.3936 58.5042C35.4108 58.7169 35.4408 58.9284 35.4835 59.1375C34.3928 59.0014 32.9119 59.0315 31.5836 59.7943C31.4502 59.8707 31.3136 59.9505 31.1731 60.0323C30.2231 60.5858 29.1591 61.2055 28.0667 61.539C28.8606 60.9631 29.7233 60.1472 30.7436 59.0425C31.5167 58.2054 32.3411 57.7662 33.1935 57.7374C34.179 57.7056 35.0073 58.2167 35.3933 58.5042H35.3936ZM34.3698 62.1073C35.1581 61.5148 36.1323 61.4593 36.6129 61.474C36.75 61.6376 36.8966 61.793 37.0521 61.9393C36.0798 62.4529 34.8815 63.3277 34.2307 64.716C34.1655 64.8548 34.0988 64.9983 34.0307 65.1465C33.5697 66.145 33.0539 67.2631 32.3504 68.162C32.6705 67.235 32.909 66.0718 33.111 64.5819C33.264 63.4526 33.6875 62.6199 34.3695 62.1073H34.3698ZM43.3644 50.9629C43.1478 51.9097 42.4655 52.5813 42.077 52.8987C41.8671 52.8433 41.654 52.8009 41.439 52.7717C41.8526 51.7445 42.1828 50.3339 41.7945 48.8728C41.7595 48.7409 41.723 48.6053 41.685 48.466C41.3915 47.3808 41.0627 46.166 41.0242 45.001C41.3725 45.9325 41.9368 46.9868 42.7383 48.256C43.3444 49.2163 43.5551 50.1271 43.3641 50.9629H43.3644ZM73.248 53.7081C64.0089 67.9025 50.9238 74.8456 43.9463 77.7211C42.9566 78.1297 41.8955 78.3374 40.8248 78.3323C39.754 78.3272 38.695 78.1093 37.7093 77.6912C30.6834 74.7521 17.5344 67.728 8.40882 53.7085C0.525679 41.5961 0.969668 33.2573 2.73112 28.3948C4.49258 23.5322 8.36098 19.8553 13.6777 17.9577C14.6024 24.4872 17.6896 30.518 22.4456 35.0863C27.2377 39.6628 33.3354 42.2908 39.719 42.5566C38.9402 44.7 39.5989 47.137 40.0764 48.9016C40.1134 49.0383 40.1495 49.1716 40.1839 49.3016C40.2786 49.6706 40.3148 50.0523 40.291 50.4326C39.873 49.2719 38.9441 48.198 37.2601 47.4926C33.4184 45.8839 32.9017 44.7864 32.625 43.5182C32.582 43.3147 32.47 43.1322 32.308 43.0016C32.1459 42.871 31.9438 42.8004 31.7357 42.8016H31.7309C31.5219 42.8013 31.3193 42.8734 31.1574 43.0056C30.9956 43.1378 30.8844 43.3219 30.8429 43.5267C30.0909 47.1222 33.1299 49.6756 34.9457 51.2012L35.1231 51.3512C35.3718 51.5634 35.59 51.8089 35.7716 52.0807C35.7393 52.0585 35.7076 52.0362 35.6745 52.014C34.5587 51.2915 33.1972 51.0987 31.6279 51.4399C27.508 52.3367 26.552 51.8214 25.6521 50.9957C25.4985 50.855 25.3013 50.7711 25.0934 50.7581C24.8855 50.745 24.6794 50.8036 24.5094 50.924C24.3395 51.0445 24.2159 51.2195 24.1593 51.42C24.1027 51.6205 24.1165 51.8343 24.1984 52.0259C25.5921 55.2871 29.2041 55.5863 31.5942 55.7843C31.7646 55.7983 31.9304 55.8121 32.0906 55.8264C32.438 55.8596 32.7788 55.9433 33.102 56.0749C31.8021 56.1293 30.5966 56.7462 29.5198 57.912C26.6605 61.0083 25.5699 61.1325 24.3418 60.97C24.1352 60.9426 23.9254 60.987 23.7475 61.0955C23.5696 61.2041 23.4343 61.3703 23.3642 61.5666C23.294 61.7628 23.2932 61.9771 23.3619 62.1739C23.4306 62.3706 23.5647 62.5379 23.7418 62.6478C24.5793 63.1774 25.5507 63.4569 26.5417 63.4534C28.6116 63.4534 30.5673 62.3144 32.0119 61.4731C32.1496 61.3928 32.2837 61.3146 32.4139 61.2398C32.6594 61.1003 32.9208 60.9909 33.1925 60.914C32.2449 61.7036 31.6622 62.8608 31.4592 64.3579C30.8926 68.5341 30.0706 69.2613 28.9725 69.8322C28.7913 69.9261 28.6469 70.0781 28.5624 70.2639C28.4778 70.4496 28.4581 70.6583 28.5064 70.8566C28.5546 71.0549 28.668 71.2312 28.8284 71.3574C28.9888 71.4836 29.1869 71.5522 29.391 71.5524C29.408 71.5524 29.4251 71.5519 29.4425 71.5509C32.9995 71.3552 34.5305 68.0393 35.5435 65.8452C35.6101 65.7003 35.6755 65.5594 35.7393 65.4234C35.8603 65.1682 36.0117 64.9286 36.1901 64.7097C35.8668 65.9 36.0531 67.1823 36.7454 68.5251C38.6769 72.2712 38.4206 73.3383 37.8474 74.4375C37.7505 74.6223 37.7199 74.8348 37.761 75.0394C37.802 75.244 37.9121 75.4283 38.0727 75.5615C38.2334 75.6946 38.435 75.7686 38.6437 75.7709C38.8523 75.7731 39.0555 75.7037 39.219 75.5741C42.0206 73.3742 41.3728 69.7793 40.9442 67.4008C40.916 67.244 40.8883 67.0911 40.8625 66.943C40.812 66.6454 40.7999 66.3425 40.8263 66.0418C41.1822 67.0312 41.9548 68.033 43.4659 68.8273C47.1868 70.7827 47.6058 71.8825 47.7673 73.117C47.7931 73.3239 47.8897 73.5156 48.0407 73.6595C48.1916 73.8034 48.3877 73.8906 48.5956 73.9065C48.6215 73.9086 48.6471 73.9096 48.6728 73.9096C48.8685 73.9102 49.0591 73.8474 49.216 73.7305C49.3729 73.6136 49.4877 73.449 49.5431 73.2613C50.5861 69.8101 47.9447 67.1781 46.1967 65.4352L45.931 65.1697C45.7316 64.9679 45.5576 64.7425 45.4127 64.4986C46.247 65.087 47.459 65.5062 49.19 65.2854C53.3612 64.752 54.2898 65.3749 55.146 66.312C55.2867 66.4657 55.4759 66.5665 55.6819 66.5976C55.888 66.6287 56.0984 66.5882 56.2783 66.483C56.4581 66.3777 56.5965 66.214 56.6703 66.0191C56.744 65.8243 56.7488 65.61 56.6838 65.412C55.5638 61.9988 51.9191 61.3646 49.5073 60.9455C49.372 60.922 49.2396 60.8988 49.1115 60.8761C48.8333 60.8252 48.5624 60.7408 48.3045 60.6248H48.3222C49.5493 60.6248 50.7339 60.113 51.8471 59.1007C54.9656 56.2659 56.0628 56.2374 57.2726 56.5061C57.476 56.5512 57.6888 56.5253 57.8754 56.4326C58.062 56.3399 58.2112 56.186 58.2981 55.9967C58.385 55.8073 58.4044 55.5938 58.353 55.3919C58.3016 55.19 58.1826 55.0118 58.0157 54.887C55.1658 52.7503 51.8611 54.3063 49.6745 55.3369C49.5301 55.4049 49.3896 55.4703 49.2533 55.5343C48.8893 55.6996 48.501 55.8052 48.1033 55.8469C49.0496 55.2678 49.9101 54.2366 50.3176 52.4319C51.2461 48.3208 52.1284 47.668 53.2734 47.1946C53.4658 47.1149 53.6252 46.9717 53.7249 46.7887C53.8245 46.6058 53.8585 46.3942 53.8212 46.1893C53.7838 45.9843 53.6774 45.7984 53.5196 45.6624C53.3617 45.5264 53.1621 45.4485 52.9539 45.4419C49.3946 45.3224 47.5792 48.4968 46.3787 50.5942C46.2995 50.7326 46.2224 50.8674 46.147 50.9974C45.7512 51.6362 45.196 52.161 44.5359 52.5202C44.7372 52.1545 44.8879 51.7632 44.9841 51.357C45.2859 50.0662 45.0044 48.7238 44.1474 47.3671C42.5336 44.812 42.1705 43.4967 42.268 42.5378C48.5178 42.1818 54.4777 39.5712 59.1852 35.095C63.9634 30.5309 67.0628 24.4888 67.9822 17.9454C73.2467 19.7442 77.1018 23.3504 78.8924 28.1846C80.7072 33.0825 81.2012 41.489 73.2477 53.7081H73.248Z" fill="#C4A068"/>
</svg>
