<svg width="87" height="80" viewBox="0 0 87 80" fill="none" xmlns="http://www.w3.org/2000/svg">
<path d="M36.2672 36.2217C34.6264 31.5271 30.8799 27.826 26.1493 26.2572C25.4578 23.8182 23.6336 22.03 22.6077 21.1838V11.5873C22.6077 10.9257 22.0707 10.3888 21.4092 10.3888C21.3576 10.3888 21.1683 10.3888 21.1167 10.3888C18.9138 10.3888 17.1209 8.59578 17.1209 6.3929C17.1209 4.19002 18.9138 2.39704 21.1167 2.39704C21.7783 2.39704 22.3152 1.8601 22.3152 1.19852C22.3152 0.536937 21.7783 0 21.1167 0C17.5919 0 14.7238 2.86806 14.7238 6.3929C14.7238 9.60853 17.1173 12.2501 20.2106 12.6947V20.8998C17.955 22.5418 16.5599 24.3395 16.0458 26.2668C11.2625 27.8584 7.49195 31.6241 5.88234 36.3966C2.72304 37.5472 0.617238 40.5267 0.509371 40.6826L0 41.416L0.556113 42.1136C1.73186 43.5866 2.95315 44.6964 4.2104 45.4407V56.6588C2.5948 57.1718 1.41305 58.6687 1.41305 60.4509C1.41305 62.6538 3.20604 64.4468 5.40892 64.4468C7.6118 64.4468 9.40479 62.6538 9.40479 60.4509C9.40479 58.6687 8.22305 57.1718 6.60744 56.6588V48.4286C7.94379 51.2199 10.0604 53.5619 12.6743 55.1811V65.6202C11.0587 66.1331 9.877 67.6301 9.877 69.4123C9.877 71.6152 11.67 73.4081 13.8729 73.4081C16.0757 73.4081 17.8687 71.6152 17.8687 69.4123C17.8687 67.6301 16.687 66.1331 15.0714 65.6202V56.3999C15.5112 56.5785 15.9571 56.7439 16.4149 56.8841C17.3342 59.0571 19.0601 60.6787 19.9637 61.4193V72.212C18.3481 72.725 17.1664 74.2219 17.1664 76.0041C17.1664 78.207 18.9594 80 21.1623 80C23.3651 80 25.1581 78.207 25.1581 76.0041C25.1581 74.2219 23.9764 72.725 22.3608 72.212V61.4805C24.1226 59.9967 25.3199 58.4458 25.9324 56.841C26.4657 56.6732 26.9847 56.4743 27.4916 56.2537V65.3193C25.876 65.8323 24.6943 67.3292 24.6943 69.1115C24.6943 71.3143 26.4873 73.1073 28.6902 73.1073C30.893 73.1073 32.686 71.3143 32.686 69.1115C32.686 67.3292 31.5043 65.8323 29.8887 65.3193V54.9665C32.2941 53.3917 34.2465 51.1852 35.5253 48.5892V56.6588C33.9097 57.1718 32.728 58.6687 32.728 60.4509C32.728 62.6538 34.521 64.4468 36.7238 64.4468C38.9267 64.4468 40.7197 62.6538 40.7197 60.4509C40.7197 58.6687 39.538 57.1718 37.9224 56.6588V45.533C40.2439 44.2326 41.6522 42.1543 41.7361 42.0273L42.1867 41.3501L41.7217 40.6802C40.0617 38.2855 38.2316 36.797 36.2672 36.2217ZM13.8741 71.0111C12.9932 71.0111 12.2752 70.2932 12.2752 69.4123C12.2752 68.5314 12.9932 67.8135 13.8741 67.8135C14.755 67.8135 15.4729 68.5314 15.4729 69.4123C15.4729 70.2932 14.755 71.0111 13.8741 71.0111ZM28.6914 70.7103C27.8105 70.7103 27.0925 69.9924 27.0925 69.1115C27.0925 68.2305 27.8105 67.5126 28.6914 67.5126C29.5723 67.5126 30.2902 68.2305 30.2902 69.1115C30.2902 69.9924 29.5735 70.7103 28.6914 70.7103ZM33.5933 35.9951C32.8514 36.0838 32.1539 36.2948 31.5031 36.5752C30.3309 34.1267 28.3174 32.1563 25.8365 31.0333C26.1301 30.3369 26.3183 29.6322 26.3914 28.9179C29.6058 30.271 32.1827 32.8131 33.5933 35.9951ZM19.8259 35.2401C17.4816 35.7171 15.6263 37.4909 14.9779 39.7693C14.2959 38.9099 13.5876 38.1968 12.8553 37.6275C13.8369 35.5481 15.5784 33.9061 17.7237 33.0456C18.4668 34.02 19.265 34.7691 19.8259 35.2401ZM24.6188 33.0947C26.7546 33.9924 28.4684 35.6835 29.4129 37.7953C28.4732 38.4989 27.7337 39.2659 27.2436 39.8328C26.6263 37.5712 24.8166 35.807 22.519 35.282C23.3496 34.5677 24.0543 33.839 24.6188 33.0947ZM21.1011 45.5006C18.8983 45.5006 17.1053 43.7076 17.1053 41.5047C17.1053 39.3019 18.8983 37.5089 21.1011 37.5089C23.304 37.5089 25.097 39.3019 25.097 41.5047C25.097 43.7076 23.3052 45.5006 21.1011 45.5006ZM14.906 43.0089C15.4477 45.2369 17.1544 46.9916 19.3477 47.6232C18.5195 48.3111 17.8472 49.0267 17.309 49.7637C15.2368 48.8073 13.5756 47.1174 12.6899 45.008C13.6451 44.3428 14.3954 43.5938 14.906 43.0089ZM27.3215 42.9274C28.0334 43.7208 28.7597 44.3884 29.5004 44.9217C28.6374 47.0587 27.0074 48.7917 24.9304 49.7637C24.3 48.8397 23.5797 48.099 22.996 47.5776C25.1473 46.9053 26.8133 45.147 27.3215 42.9274ZM21.203 23.1374C22.1774 23.9752 23.9296 25.7826 24.0267 28.007C24.0867 29.3817 23.5006 30.7696 22.3009 32.1515V28.2263C22.3009 27.5648 21.7639 27.0278 21.1023 27.0278C20.4408 27.0278 19.9038 27.5648 19.9038 28.2263V31.9226C19.0313 30.8787 18.2055 29.4968 18.2043 27.9818C18.2031 26.3159 19.2123 24.6895 21.203 23.1374ZM15.8684 28.8663C15.9679 29.6166 16.1884 30.3237 16.4808 30.9805C14.0011 32.0748 11.9828 34.0104 10.7879 36.4326C10.0748 36.1534 9.34246 35.9939 8.59339 35.9652C10.0148 32.7627 12.6264 30.2147 15.8684 28.8663ZM3.04784 41.3465C3.99467 40.2727 6.01657 38.3419 8.32971 38.3419C9.69003 38.3419 11.0252 39.0262 12.3148 40.3602H7.76881C7.10722 40.3602 6.57029 40.8971 6.57029 41.5587C6.57029 42.2215 7.10722 42.7572 7.76881 42.7572H11.7155C10.7651 43.5039 9.52703 44.1702 8.10799 44.1702C6.42886 44.1691 4.72936 43.221 3.04784 41.3465ZM5.41012 62.0498C4.52921 62.0498 3.81129 61.3319 3.81129 60.4509C3.81129 59.57 4.52921 58.8521 5.41012 58.8521C6.29103 58.8521 7.00894 59.57 7.00894 60.4509C7.00894 61.3319 6.29223 62.0498 5.41012 62.0498ZM8.42799 46.5481C9.19384 46.5122 9.91296 46.3599 10.5769 46.1202C11.6928 48.6527 13.6799 50.713 16.1716 51.9007C15.9355 52.5982 15.8061 53.3126 15.8061 54.0437C15.8061 54.0556 15.8085 54.0676 15.8085 54.0784C12.4478 52.6594 9.78352 49.9459 8.42799 46.5481ZM21.1635 77.603C20.2826 77.603 19.5646 76.885 19.5646 76.0041C19.5646 75.1232 20.2826 74.4053 21.1635 74.4053C22.0444 74.4053 22.7623 75.1232 22.7623 76.0041C22.7623 76.885 22.0444 77.603 21.1635 77.603ZM21.2078 59.3255C20.1339 58.3787 18.2043 56.3568 18.2031 54.0437C18.2031 52.7912 18.7736 51.5615 19.9026 50.369V54.891C19.9026 55.5538 20.4396 56.0895 21.1011 56.0895C21.7627 56.0895 22.2997 55.5538 22.2997 54.891V50.2947C23.1302 51.2475 23.9608 52.5575 24.0255 54.0688C24.1022 55.8127 23.1554 57.5781 21.2078 59.3255ZM26.4178 54.1084C26.4166 54.0604 26.4238 54.0125 26.4214 53.9646C26.389 53.2227 26.2344 52.5299 26.0091 51.8827C28.5224 50.695 30.5335 48.6347 31.6493 46.0843C32.3588 46.3504 33.0779 46.5026 33.8055 46.5409C32.4511 49.9459 29.7856 52.6821 26.4178 54.1084ZM36.725 62.0498C35.8441 62.0498 35.1262 61.3319 35.1262 60.4509C35.1262 59.57 35.8441 58.8521 36.725 58.8521C37.606 58.8521 38.3239 59.57 38.3239 60.4509C38.3239 61.3319 37.6072 62.0498 36.725 62.0498ZM34.171 44.1691C32.9893 44.1691 31.7967 43.6896 30.6078 42.756H34.4335C35.0951 42.756 35.632 42.2203 35.632 41.5575C35.632 40.8959 35.0951 40.359 34.4335 40.359H30.0745C31.1435 39.381 32.6788 38.3407 34.3927 38.3407C36.0599 38.3407 37.6875 39.351 39.2407 41.3453C38.3886 42.3497 36.5189 44.1691 34.171 44.1691Z" fill="#C4A068"/>
<path d="M85.8093 42.1124L86.3666 41.4149L85.8572 40.6814C85.7482 40.5256 83.6436 37.5472 80.4855 36.3966C78.8747 31.6241 75.1041 27.8584 70.322 26.2668C69.8079 24.3395 68.4128 22.5418 66.1572 20.8998V12.6947C69.2505 12.2501 71.644 9.60853 71.644 6.3929C71.644 2.86806 68.7759 0 65.2511 0C64.5883 0 64.0526 0.536937 64.0526 1.19852C64.0526 1.8601 64.5883 2.39704 65.2511 2.39704C67.454 2.39704 69.247 4.19002 69.247 6.3929C69.247 8.59578 67.454 10.3888 65.2511 10.3888C65.1996 10.3888 65.0102 10.3888 64.9586 10.3888C64.2959 10.3888 63.7601 10.9257 63.7601 11.5873V21.1826C62.7354 22.0288 60.91 23.817 60.2185 26.2572C55.4879 27.8272 51.7414 31.5271 50.1018 36.2217C48.1362 36.797 46.3061 38.2867 44.6437 40.6814L44.1787 41.3513L44.6294 42.0285C44.7144 42.1543 46.1227 44.2338 48.4442 45.533V56.6588C46.8286 57.173 45.6469 58.6687 45.6469 60.4509C45.6469 62.6538 47.4399 64.4468 49.6428 64.4468C51.8456 64.4468 53.6386 62.6538 53.6386 60.4509C53.6386 58.6687 52.4569 57.1718 50.8413 56.6588V48.5892C52.1201 51.1852 54.0725 53.3917 56.4779 54.9665V65.3193C54.8623 65.8335 53.6806 67.3292 53.6806 69.1115C53.6806 71.3143 55.4736 73.1073 57.6764 73.1073C59.8793 73.1073 61.6723 71.3143 61.6723 69.1115C61.6723 67.3292 60.4906 65.8335 58.875 65.3193V56.2537C59.3831 56.4755 59.9009 56.6744 60.4342 56.841C61.0467 58.4458 62.2452 59.9967 64.0058 61.4805V72.212C62.3902 72.7262 61.2085 74.2219 61.2085 76.0041C61.2085 78.207 63.0015 80 65.2043 80C67.4072 80 69.2002 78.207 69.2002 76.0041C69.2002 74.2219 68.0185 72.725 66.4029 72.212V61.4193C67.3065 60.6787 69.0324 59.0559 69.9517 56.8841C70.4095 56.7439 70.8566 56.5785 71.2952 56.3999V65.6202C69.6796 66.1343 68.4979 67.6301 68.4979 69.4123C68.4979 71.6152 70.2909 73.4081 72.4937 73.4081C74.6966 73.4081 76.4896 71.6152 76.4896 69.4123C76.4896 67.6301 75.3079 66.1331 73.6923 65.6202V55.1811C76.3062 53.5619 78.4216 51.2199 79.7592 48.4286V56.6588C78.1436 57.173 76.9618 58.6687 76.9618 60.4509C76.9618 62.6538 78.7548 64.4468 80.9577 64.4468C83.1606 64.4468 84.9535 62.6538 84.9535 60.4509C84.9535 58.6687 83.7718 57.1718 82.1562 56.6588V45.4395C83.4123 44.6952 84.6335 43.5854 85.8093 42.1124ZM57.6764 70.7103C56.7955 70.7103 56.0776 69.9924 56.0776 69.1115C56.0776 68.2305 56.7955 67.5126 57.6764 67.5126C58.5574 67.5126 59.2753 68.2305 59.2753 69.1115C59.2753 69.9924 58.5574 70.7103 57.6764 70.7103ZM72.4937 71.0111C71.6128 71.0111 70.8949 70.2932 70.8949 69.4123C70.8949 68.5314 71.6128 67.8135 72.4937 67.8135C73.3747 67.8135 74.0926 68.5314 74.0926 69.4123C74.0926 70.2932 73.3747 71.0111 72.4937 71.0111ZM83.3224 41.3441C81.6396 43.2198 79.9401 44.1691 78.2598 44.1691C76.8528 44.1691 75.6147 43.5027 74.6619 42.756H78.5978C79.2606 42.756 79.7963 42.2203 79.7963 41.5575C79.7963 40.8959 79.2606 40.359 78.5978 40.359H74.0518C75.3402 39.0262 76.6754 38.3407 78.0357 38.3407C80.3692 38.3419 82.3815 40.2691 83.3224 41.3441ZM63.8476 35.282C61.5501 35.807 59.7403 37.5712 59.1231 39.8316C58.6341 39.2635 57.8946 38.4977 56.9537 37.7941C57.8982 35.6823 59.6132 33.9912 61.749 33.0935C62.3135 33.839 63.0194 34.5677 63.8476 35.282ZM68.6441 33.0468C70.7882 33.9073 72.5297 35.5493 73.5125 37.6287C72.7814 38.1992 72.0731 38.9111 71.3899 39.7705C70.7427 37.4921 68.8862 35.7183 66.5419 35.2413C67.1016 34.7691 67.901 34.02 68.6441 33.0468ZM65.2667 45.5006C63.0638 45.5006 61.2708 43.7076 61.2708 41.5047C61.2708 39.3019 63.0638 37.5089 65.2667 37.5089C67.4695 37.5089 69.2625 39.3019 69.2625 41.5047C69.2625 43.7076 67.4695 45.5006 65.2667 45.5006ZM59.0451 42.9274C59.5533 45.1458 61.2193 46.9029 63.3706 47.5776C62.7881 48.1002 62.0666 48.8397 61.4374 49.7637C59.3592 48.7917 57.728 47.0575 56.8662 44.9217C57.6069 44.3884 58.3344 43.7208 59.0451 42.9274ZM71.4618 43.0089C71.9724 43.5938 72.7239 44.3416 73.6779 45.008C72.7934 47.1174 71.131 48.8085 69.0588 49.7637C68.5206 49.0267 67.8483 48.3111 67.0201 47.6232C69.2134 46.9916 70.9201 45.2369 71.4618 43.0089ZM77.7756 35.9652C77.0253 35.9939 76.2942 36.1534 75.5799 36.4326C74.385 34.0104 72.3655 32.0748 69.887 30.9805C70.1794 30.3249 70.3999 29.6178 70.4994 28.8676C73.7414 30.2147 76.353 32.7627 77.7756 35.9652ZM65.1624 23.1362C67.1519 24.6859 68.1611 26.3111 68.1647 27.9735C68.1683 29.504 67.3401 30.8907 66.4652 31.9334V28.2263C66.4652 27.5648 65.9295 27.0278 65.2667 27.0278C64.6039 27.0278 64.0681 27.5648 64.0681 28.2263V32.1515C62.8708 30.7732 62.2847 29.3889 62.3411 28.0178C62.4334 25.7718 64.1856 23.9704 65.1624 23.1362ZM59.9776 28.9179C60.0507 29.6334 60.2389 30.3381 60.5313 31.0345C58.0516 32.1575 56.0381 34.1267 54.8647 36.5764C54.2139 36.296 53.5164 36.085 52.7757 35.9963C54.1863 32.8131 56.762 30.271 59.9776 28.9179ZM47.1295 41.3441C48.6815 39.351 50.3091 38.3419 51.9751 38.3419C53.689 38.3419 55.2243 39.381 56.2945 40.3602H51.9343C51.2715 40.3602 50.7358 40.8971 50.7358 41.5587C50.7358 42.2215 51.2715 42.7572 51.9343 42.7572H55.76C54.5711 43.6896 53.3797 44.1702 52.1968 44.1702C49.8669 44.1691 47.9864 42.3473 47.1295 41.3441ZM49.6428 62.0498C48.7618 62.0498 48.0439 61.3319 48.0439 60.4509C48.0439 59.57 48.7618 58.8521 49.6428 58.8521C50.5237 58.8521 51.2416 59.57 51.2416 60.4509C51.2416 61.3319 50.5237 62.0498 49.6428 62.0498ZM52.5624 46.5409C53.2899 46.5026 54.009 46.3504 54.7185 46.0843C55.8355 48.6347 57.8454 50.695 60.3587 51.8839C60.1334 52.5299 59.9788 53.2239 59.9464 53.9646C59.944 54.0125 59.9524 54.0604 59.9512 54.1084C56.5822 52.6821 53.9167 49.9459 52.5624 46.5409ZM65.2043 77.603C64.3234 77.603 63.6055 76.885 63.6055 76.0041C63.6055 75.1232 64.3234 74.4053 65.2043 74.4053C66.0853 74.4053 66.8032 75.1232 66.8032 76.0041C66.8032 76.885 66.0853 77.603 65.2043 77.603ZM65.1624 59.3279C63.2184 57.5841 62.2692 55.8211 62.3411 54.0796C62.4046 52.5527 63.2352 51.2391 64.0681 50.2863V54.891C64.0681 55.5538 64.6039 56.0895 65.2667 56.0895C65.9295 56.0895 66.4652 55.5538 66.4652 54.891V50.369C67.5918 51.5591 68.1623 52.7876 68.1647 54.0365C68.1695 56.3712 66.2387 58.3859 65.1624 59.3279ZM70.5593 54.0784C70.5593 54.0664 70.5617 54.0544 70.5617 54.0437C70.5617 53.3126 70.4323 52.5982 70.1962 51.9007C72.6879 50.7118 74.675 48.6527 75.7909 46.1202C76.4548 46.3599 77.174 46.5122 77.9398 46.5481C76.5843 49.9459 73.92 52.6594 70.5593 54.0784ZM80.9577 62.0498C80.0768 62.0498 79.3589 61.3319 79.3589 60.4509C79.3589 59.57 80.0768 58.8521 80.9577 58.8521C81.8386 58.8521 82.5565 59.57 82.5565 60.4509C82.5565 61.3319 81.8386 62.0498 80.9577 62.0498Z" fill="#C4A068"/>
</svg>
