<svg width="116" height="80" viewBox="0 0 116 80" fill="none" xmlns="http://www.w3.org/2000/svg">
<path d="M111.788 30.7173C103.624 13.6858 79.8555 -1.35265 62.9819 0.096839C50.0999 0.459212 42.4795 6.80073 39.9394 15.86C27.9646 19.3026 17.9856 24.557 11.6353 30.7173C2.20057 39.2331 -1.79104 49.5607 0.749071 59.5259C4.19637 72.3902 17.2598 80 35.9478 80C50.8256 80 67.8807 75.108 80.3998 66.5922C95.6405 70.5783 106.527 65.8675 111.97 58.0765C117.05 50.829 117.05 41.2261 111.788 30.7173ZM109.248 46.8429C106.89 50.2854 101.809 51.7349 95.0962 51.0102C97.9992 45.2122 98.9063 39.0519 97.2734 33.0728C93.8261 20.3897 80.7627 12.7799 62.0747 12.7799C62.0747 12.7799 62.0747 12.7799 61.8932 12.7799C58.9903 12.7799 55.7244 12.9611 52.64 13.3234C52.64 11.3304 53.1843 9.51853 54.2729 7.88785C59.5346 0.459212 76.7711 2.81463 91.4674 13.3234C106.527 24.0134 114.51 39.2331 109.248 46.8429ZM75.1381 43.4004C74.0495 42.6756 72.9609 42.1321 72.0537 41.2261C61.8932 33.9787 54.8172 24.557 53.1843 16.9472C69.5136 14.9541 82.7585 18.9402 84.7543 26.55C86.0243 31.8044 82.2142 37.9648 75.1381 43.4004ZM50.6442 7.1631C44.2939 18.759 57.7202 35.7905 69.8765 44.3063C70.6022 44.8499 71.1465 45.2122 71.8723 45.7558C68.425 48.1112 64.2519 50.1043 59.716 51.9161C37.9436 34.1599 39.0322 14.5917 50.6442 7.1631ZM55.7244 53.3656C45.3825 56.8082 32.6819 58.62 21.9772 56.627C14.1754 54.9963 9.2766 51.7349 8.00654 47.2053C6.73648 42.3132 10.1838 36.5153 16.5341 31.2609C23.0658 26.0065 31.049 22.3828 39.0322 19.8461C37.5807 32.5292 46.1083 45.031 55.7244 53.3656ZM35.9478 76.3763C19.0742 76.3763 7.09936 69.6724 4.19637 58.62C3.28919 55.1775 3.28919 51.5538 4.37781 47.93C4.37781 48.1112 4.37781 48.1112 4.37781 48.2924C6.01074 54.2715 11.9981 58.4388 21.2514 60.2507C38.4879 63.512 61.8932 57.7141 76.2267 47.2053C76.2267 47.2053 76.2268 47.2053 76.4082 47.2053C85.2986 40.6826 90.0159 32.8916 88.2016 25.8253C88.0201 25.2817 87.8387 24.9194 87.6573 24.3758C90.7417 27.0936 92.9189 30.355 93.8261 34.1599C96.1848 42.8568 92.3746 52.0973 83.4842 59.8883C71.328 70.2159 52.0957 76.3763 35.9478 76.3763ZM109.067 56.0834C104.168 62.7873 95.0962 65.6863 84.21 63.6932C84.7543 63.3309 85.2986 62.7873 85.8429 62.4249C88.7459 59.8883 91.286 57.1705 93.1004 54.2715C94.9147 54.6339 96.7291 54.8151 98.362 54.8151C104.349 54.8151 109.067 52.8221 111.97 49.1983C111.425 51.7349 110.518 53.9092 109.067 56.0834Z" fill="#C4A068"/>
</svg>
