<svg width="25" height="25" viewBox="0 0 25 25" fill="none" xmlns="http://www.w3.org/2000/svg">
<path d="M11.6815 22.4534C6.03146 22.4534 1.43146 17.8534 1.43146 12.2034C1.43146 6.55343 6.03146 1.95343 11.6815 1.95343C17.3315 1.95343 21.9315 6.55343 21.9315 12.2034C21.9315 17.8534 17.3315 22.4534 11.6815 22.4534ZM11.6815 3.45343C6.85146 3.45343 2.93146 7.38343 2.93146 12.2034C2.93146 17.0234 6.85146 20.9534 11.6815 20.9534C16.5115 20.9534 20.4315 17.0234 20.4315 12.2034C20.4315 7.38343 16.5115 3.45343 11.6815 3.45343Z" fill="#CBCBCB"/>
<path d="M22.1815 23.4534C21.9915 23.4534 21.8015 23.3834 21.6515 23.2334L19.6515 21.2334C19.3615 20.9434 19.3615 20.4634 19.6515 20.1734C19.9415 19.8834 20.4215 19.8834 20.7115 20.1734L22.7115 22.1734C23.0015 22.4634 23.0015 22.9434 22.7115 23.2334C22.5615 23.3834 22.3715 23.4534 22.1815 23.4534Z" fill="#CBCBCB"/>
</svg>
